%TF.GenerationSoftware,KiCad,Pcbnew,(6.0.11)*%
%TF.CreationDate,2024-12-29T21:25:45+02:00*%
%TF.ProjectId,LEDdice,4c454464-6963-4652-9e6b-696361645f70,rev?*%
%TF.SameCoordinates,Original*%
%TF.FileFunction,Drillmap*%
%TF.FilePolarity,Positive*%
%FSLAX45Y45*%
G04 Gerber Fmt 4.5, Leading zero omitted, Abs format (unit mm)*
G04 Created by KiCad (PCBNEW (6.0.11)) date 2024-12-29 21:25:45*
%MOMM*%
%LPD*%
G01*
G04 APERTURE LIST*
%ADD10C,0.100000*%
%ADD11C,0.200000*%
%ADD12C,0.040000*%
%ADD13C,0.076200*%
%ADD14C,0.130000*%
G04 APERTURE END LIST*
D10*
X16000000Y-11700000D02*
X16000000Y-5100000D01*
X20800000Y-5100000D02*
X20800000Y-11700000D01*
X16000000Y-5100000D02*
X20800000Y-5100000D01*
X20800000Y-11700000D02*
X16000000Y-11700000D01*
D11*
D12*
X16159800Y-9505000D02*
X16199800Y-9545000D01*
X16199800Y-9505000D02*
X16159800Y-9545000D01*
X16871000Y-5237800D02*
X16911000Y-5277800D01*
X16911000Y-5237800D02*
X16871000Y-5277800D01*
X18699800Y-5669600D02*
X18739800Y-5709600D01*
X18739800Y-5669600D02*
X18699800Y-5709600D01*
X18979200Y-7955600D02*
X19019200Y-7995600D01*
X19019200Y-7955600D02*
X18979200Y-7995600D01*
X18979200Y-10394000D02*
X19019200Y-10434000D01*
X19019200Y-10394000D02*
X18979200Y-10434000D01*
X19284000Y-7371400D02*
X19324000Y-7411400D01*
X19324000Y-7371400D02*
X19284000Y-7411400D01*
X19309400Y-11105200D02*
X19349400Y-11145200D01*
X19349400Y-11105200D02*
X19309400Y-11145200D01*
X19690400Y-6406200D02*
X19730400Y-6446200D01*
X19730400Y-6406200D02*
X19690400Y-6446200D01*
X19868200Y-7955600D02*
X19908200Y-7995600D01*
X19908200Y-7955600D02*
X19868200Y-7995600D01*
X20046000Y-7727000D02*
X20086000Y-7767000D01*
X20086000Y-7727000D02*
X20046000Y-7767000D01*
X20477800Y-6660200D02*
X20517800Y-6700200D01*
X20517800Y-6660200D02*
X20477800Y-6700200D01*
X20477800Y-7117400D02*
X20517800Y-7157400D01*
X20517800Y-7117400D02*
X20477800Y-7157400D01*
X20477800Y-7219000D02*
X20517800Y-7259000D01*
X20517800Y-7219000D02*
X20477800Y-7259000D01*
X20503200Y-7752400D02*
X20543200Y-7792400D01*
X20543200Y-7752400D02*
X20503200Y-7792400D01*
X20579400Y-9327200D02*
X20619400Y-9367200D01*
X20619400Y-9327200D02*
X20579400Y-9367200D01*
D13*
X16726100Y-6400000D02*
G75*
G03*
X16726100Y-6400000I-38100J0D01*
G01*
X16726100Y-7924000D02*
G75*
G03*
X16726100Y-7924000I-38100J0D01*
G01*
X16980100Y-6400000D02*
G75*
G03*
X16980100Y-6400000I-38100J0D01*
G01*
X16980100Y-7924000D02*
G75*
G03*
X16980100Y-7924000I-38100J0D01*
G01*
X17234100Y-6400000D02*
G75*
G03*
X17234100Y-6400000I-38100J0D01*
G01*
X17234100Y-7924000D02*
G75*
G03*
X17234100Y-7924000I-38100J0D01*
G01*
X17488100Y-6400000D02*
G75*
G03*
X17488100Y-6400000I-38100J0D01*
G01*
X17488100Y-7924000D02*
G75*
G03*
X17488100Y-7924000I-38100J0D01*
G01*
X17742100Y-6400000D02*
G75*
G03*
X17742100Y-6400000I-38100J0D01*
G01*
X17742100Y-7924000D02*
G75*
G03*
X17742100Y-7924000I-38100J0D01*
G01*
X19384900Y-5446000D02*
G75*
G03*
X19384900Y-5446000I-38100J0D01*
G01*
X19384900Y-5700000D02*
G75*
G03*
X19384900Y-5700000I-38100J0D01*
G01*
X19384900Y-5954000D02*
G75*
G03*
X19384900Y-5954000I-38100J0D01*
G01*
X19892900Y-5446000D02*
G75*
G03*
X19892900Y-5446000I-38100J0D01*
G01*
X19892900Y-5700000D02*
G75*
G03*
X19892900Y-5700000I-38100J0D01*
G01*
X19892900Y-5954000D02*
G75*
G03*
X19892900Y-5954000I-38100J0D01*
G01*
D10*
X19024600Y-8382800D02*
X19024600Y-8482800D01*
X18974600Y-8432800D02*
X19074600Y-8432800D01*
X19024600Y-8636800D02*
X19024600Y-8736800D01*
X18974600Y-8686800D02*
X19074600Y-8686800D01*
X19024600Y-8890800D02*
X19024600Y-8990800D01*
X18974600Y-8940800D02*
X19074600Y-8940800D01*
X19024600Y-9144800D02*
X19024600Y-9244800D01*
X18974600Y-9194800D02*
X19074600Y-9194800D01*
X19913600Y-8509800D02*
X19913600Y-8609800D01*
X19863600Y-8559800D02*
X19963600Y-8559800D01*
X19913600Y-8763800D02*
X19913600Y-8863800D01*
X19863600Y-8813800D02*
X19963600Y-8813800D01*
X19913600Y-9017800D02*
X19913600Y-9117800D01*
X19863600Y-9067800D02*
X19963600Y-9067800D01*
X20167600Y-8509800D02*
X20167600Y-8609800D01*
X20117600Y-8559800D02*
X20217600Y-8559800D01*
X20167600Y-8763800D02*
X20167600Y-8863800D01*
X20117600Y-8813800D02*
X20217600Y-8813800D01*
X20167600Y-9017800D02*
X20167600Y-9117800D01*
X20117600Y-9067800D02*
X20217600Y-9067800D01*
X20400000Y-5411000D02*
X20400000Y-5511000D01*
X20350000Y-5461000D02*
X20450000Y-5461000D01*
X20400000Y-5665000D02*
X20400000Y-5765000D01*
X20350000Y-5715000D02*
X20450000Y-5715000D01*
X20400000Y-5919000D02*
X20400000Y-6019000D01*
X20350000Y-5969000D02*
X20450000Y-5969000D01*
X20400000Y-6173000D02*
X20400000Y-6273000D01*
X20350000Y-6223000D02*
X20450000Y-6223000D01*
D14*
X16621962Y-9845962D02*
X16621962Y-9754038D01*
X16530038Y-9754038D01*
X16530038Y-9845962D01*
X16621962Y-9845962D01*
X16621962Y-10345962D02*
X16621962Y-10254038D01*
X16530038Y-10254038D01*
X16530038Y-10345962D01*
X16621962Y-10345962D01*
X17871962Y-9845962D02*
X17871962Y-9754038D01*
X17780038Y-9754038D01*
X17780038Y-9845962D01*
X17871962Y-9845962D01*
X17871962Y-10345962D02*
X17871962Y-10254038D01*
X17780038Y-10254038D01*
X17780038Y-10345962D01*
X17871962Y-10345962D01*
D11*
X16252619Y-12015476D02*
X16252619Y-11815476D01*
X16300238Y-11815476D01*
X16328809Y-11825000D01*
X16347857Y-11844048D01*
X16357381Y-11863095D01*
X16366905Y-11901190D01*
X16366905Y-11929762D01*
X16357381Y-11967857D01*
X16347857Y-11986905D01*
X16328809Y-12005952D01*
X16300238Y-12015476D01*
X16252619Y-12015476D01*
X16452619Y-12015476D02*
X16452619Y-11882143D01*
X16452619Y-11920238D02*
X16462143Y-11901190D01*
X16471667Y-11891667D01*
X16490714Y-11882143D01*
X16509762Y-11882143D01*
X16576428Y-12015476D02*
X16576428Y-11882143D01*
X16576428Y-11815476D02*
X16566905Y-11825000D01*
X16576428Y-11834524D01*
X16585952Y-11825000D01*
X16576428Y-11815476D01*
X16576428Y-11834524D01*
X16700238Y-12015476D02*
X16681190Y-12005952D01*
X16671667Y-11986905D01*
X16671667Y-11815476D01*
X16805000Y-12015476D02*
X16785952Y-12005952D01*
X16776428Y-11986905D01*
X16776428Y-11815476D01*
X17033571Y-12015476D02*
X17033571Y-11815476D01*
X17100238Y-11958333D01*
X17166905Y-11815476D01*
X17166905Y-12015476D01*
X17347857Y-12015476D02*
X17347857Y-11910714D01*
X17338333Y-11891667D01*
X17319286Y-11882143D01*
X17281190Y-11882143D01*
X17262143Y-11891667D01*
X17347857Y-12005952D02*
X17328810Y-12015476D01*
X17281190Y-12015476D01*
X17262143Y-12005952D01*
X17252619Y-11986905D01*
X17252619Y-11967857D01*
X17262143Y-11948809D01*
X17281190Y-11939286D01*
X17328810Y-11939286D01*
X17347857Y-11929762D01*
X17443095Y-11882143D02*
X17443095Y-12082143D01*
X17443095Y-11891667D02*
X17462143Y-11882143D01*
X17500238Y-11882143D01*
X17519286Y-11891667D01*
X17528810Y-11901190D01*
X17538333Y-11920238D01*
X17538333Y-11977381D01*
X17528810Y-11996428D01*
X17519286Y-12005952D01*
X17500238Y-12015476D01*
X17462143Y-12015476D01*
X17443095Y-12005952D01*
X17624048Y-11996428D02*
X17633571Y-12005952D01*
X17624048Y-12015476D01*
X17614524Y-12005952D01*
X17624048Y-11996428D01*
X17624048Y-12015476D01*
X17624048Y-11891667D02*
X17633571Y-11901190D01*
X17624048Y-11910714D01*
X17614524Y-11901190D01*
X17624048Y-11891667D01*
X17624048Y-11910714D01*
D12*
X15955000Y-12325000D02*
X15995000Y-12365000D01*
X15995000Y-12325000D02*
X15955000Y-12365000D01*
D11*
X16290714Y-12235476D02*
X16309762Y-12235476D01*
X16328809Y-12245000D01*
X16338333Y-12254524D01*
X16347857Y-12273571D01*
X16357381Y-12311667D01*
X16357381Y-12359286D01*
X16347857Y-12397381D01*
X16338333Y-12416428D01*
X16328809Y-12425952D01*
X16309762Y-12435476D01*
X16290714Y-12435476D01*
X16271667Y-12425952D01*
X16262143Y-12416428D01*
X16252619Y-12397381D01*
X16243095Y-12359286D01*
X16243095Y-12311667D01*
X16252619Y-12273571D01*
X16262143Y-12254524D01*
X16271667Y-12245000D01*
X16290714Y-12235476D01*
X16443095Y-12416428D02*
X16452619Y-12425952D01*
X16443095Y-12435476D01*
X16433571Y-12425952D01*
X16443095Y-12416428D01*
X16443095Y-12435476D01*
X16624048Y-12302143D02*
X16624048Y-12435476D01*
X16576428Y-12225952D02*
X16528809Y-12368809D01*
X16652619Y-12368809D01*
X16766905Y-12235476D02*
X16785952Y-12235476D01*
X16805000Y-12245000D01*
X16814524Y-12254524D01*
X16824048Y-12273571D01*
X16833571Y-12311667D01*
X16833571Y-12359286D01*
X16824048Y-12397381D01*
X16814524Y-12416428D01*
X16805000Y-12425952D01*
X16785952Y-12435476D01*
X16766905Y-12435476D01*
X16747857Y-12425952D01*
X16738333Y-12416428D01*
X16728809Y-12397381D01*
X16719286Y-12359286D01*
X16719286Y-12311667D01*
X16728809Y-12273571D01*
X16738333Y-12254524D01*
X16747857Y-12245000D01*
X16766905Y-12235476D01*
X16957381Y-12235476D02*
X16976429Y-12235476D01*
X16995476Y-12245000D01*
X17005000Y-12254524D01*
X17014524Y-12273571D01*
X17024048Y-12311667D01*
X17024048Y-12359286D01*
X17014524Y-12397381D01*
X17005000Y-12416428D01*
X16995476Y-12425952D01*
X16976429Y-12435476D01*
X16957381Y-12435476D01*
X16938333Y-12425952D01*
X16928810Y-12416428D01*
X16919286Y-12397381D01*
X16909762Y-12359286D01*
X16909762Y-12311667D01*
X16919286Y-12273571D01*
X16928810Y-12254524D01*
X16938333Y-12245000D01*
X16957381Y-12235476D01*
X17109762Y-12435476D02*
X17109762Y-12302143D01*
X17109762Y-12321190D02*
X17119286Y-12311667D01*
X17138333Y-12302143D01*
X17166905Y-12302143D01*
X17185952Y-12311667D01*
X17195476Y-12330714D01*
X17195476Y-12435476D01*
X17195476Y-12330714D02*
X17205000Y-12311667D01*
X17224048Y-12302143D01*
X17252619Y-12302143D01*
X17271667Y-12311667D01*
X17281190Y-12330714D01*
X17281190Y-12435476D01*
X17376429Y-12435476D02*
X17376429Y-12302143D01*
X17376429Y-12321190D02*
X17385952Y-12311667D01*
X17405000Y-12302143D01*
X17433571Y-12302143D01*
X17452619Y-12311667D01*
X17462143Y-12330714D01*
X17462143Y-12435476D01*
X17462143Y-12330714D02*
X17471667Y-12311667D01*
X17490714Y-12302143D01*
X17519286Y-12302143D01*
X17538333Y-12311667D01*
X17547857Y-12330714D01*
X17547857Y-12435476D01*
X17938333Y-12225952D02*
X17766905Y-12483095D01*
X18195476Y-12235476D02*
X18214524Y-12235476D01*
X18233571Y-12245000D01*
X18243095Y-12254524D01*
X18252619Y-12273571D01*
X18262143Y-12311667D01*
X18262143Y-12359286D01*
X18252619Y-12397381D01*
X18243095Y-12416428D01*
X18233571Y-12425952D01*
X18214524Y-12435476D01*
X18195476Y-12435476D01*
X18176429Y-12425952D01*
X18166905Y-12416428D01*
X18157381Y-12397381D01*
X18147857Y-12359286D01*
X18147857Y-12311667D01*
X18157381Y-12273571D01*
X18166905Y-12254524D01*
X18176429Y-12245000D01*
X18195476Y-12235476D01*
X18347857Y-12416428D02*
X18357381Y-12425952D01*
X18347857Y-12435476D01*
X18338333Y-12425952D01*
X18347857Y-12416428D01*
X18347857Y-12435476D01*
X18481190Y-12235476D02*
X18500238Y-12235476D01*
X18519286Y-12245000D01*
X18528810Y-12254524D01*
X18538333Y-12273571D01*
X18547857Y-12311667D01*
X18547857Y-12359286D01*
X18538333Y-12397381D01*
X18528810Y-12416428D01*
X18519286Y-12425952D01*
X18500238Y-12435476D01*
X18481190Y-12435476D01*
X18462143Y-12425952D01*
X18452619Y-12416428D01*
X18443095Y-12397381D01*
X18433571Y-12359286D01*
X18433571Y-12311667D01*
X18443095Y-12273571D01*
X18452619Y-12254524D01*
X18462143Y-12245000D01*
X18481190Y-12235476D01*
X18738333Y-12435476D02*
X18624048Y-12435476D01*
X18681190Y-12435476D02*
X18681190Y-12235476D01*
X18662143Y-12264048D01*
X18643095Y-12283095D01*
X18624048Y-12292619D01*
X18919286Y-12235476D02*
X18824048Y-12235476D01*
X18814524Y-12330714D01*
X18824048Y-12321190D01*
X18843095Y-12311667D01*
X18890714Y-12311667D01*
X18909762Y-12321190D01*
X18919286Y-12330714D01*
X18928810Y-12349762D01*
X18928810Y-12397381D01*
X18919286Y-12416428D01*
X18909762Y-12425952D01*
X18890714Y-12435476D01*
X18843095Y-12435476D01*
X18824048Y-12425952D01*
X18814524Y-12416428D01*
X18995476Y-12235476D02*
X19128810Y-12235476D01*
X19043095Y-12435476D01*
X19195476Y-12235476D02*
X19195476Y-12273571D01*
X19271667Y-12235476D02*
X19271667Y-12273571D01*
X19566905Y-12511667D02*
X19557381Y-12502143D01*
X19538333Y-12473571D01*
X19528810Y-12454524D01*
X19519286Y-12425952D01*
X19509762Y-12378333D01*
X19509762Y-12340238D01*
X19519286Y-12292619D01*
X19528810Y-12264048D01*
X19538333Y-12245000D01*
X19557381Y-12216428D01*
X19566905Y-12206905D01*
X19747857Y-12435476D02*
X19633571Y-12435476D01*
X19690714Y-12435476D02*
X19690714Y-12235476D01*
X19671667Y-12264048D01*
X19652619Y-12283095D01*
X19633571Y-12292619D01*
X19928810Y-12235476D02*
X19833571Y-12235476D01*
X19824048Y-12330714D01*
X19833571Y-12321190D01*
X19852619Y-12311667D01*
X19900238Y-12311667D01*
X19919286Y-12321190D01*
X19928810Y-12330714D01*
X19938333Y-12349762D01*
X19938333Y-12397381D01*
X19928810Y-12416428D01*
X19919286Y-12425952D01*
X19900238Y-12435476D01*
X19852619Y-12435476D01*
X19833571Y-12425952D01*
X19824048Y-12416428D01*
X20176429Y-12435476D02*
X20176429Y-12235476D01*
X20262143Y-12435476D02*
X20262143Y-12330714D01*
X20252619Y-12311667D01*
X20233571Y-12302143D01*
X20205000Y-12302143D01*
X20185952Y-12311667D01*
X20176429Y-12321190D01*
X20385952Y-12435476D02*
X20366905Y-12425952D01*
X20357381Y-12416428D01*
X20347857Y-12397381D01*
X20347857Y-12340238D01*
X20357381Y-12321190D01*
X20366905Y-12311667D01*
X20385952Y-12302143D01*
X20414524Y-12302143D01*
X20433571Y-12311667D01*
X20443095Y-12321190D01*
X20452619Y-12340238D01*
X20452619Y-12397381D01*
X20443095Y-12416428D01*
X20433571Y-12425952D01*
X20414524Y-12435476D01*
X20385952Y-12435476D01*
X20566905Y-12435476D02*
X20547857Y-12425952D01*
X20538333Y-12406905D01*
X20538333Y-12235476D01*
X20719286Y-12425952D02*
X20700238Y-12435476D01*
X20662143Y-12435476D01*
X20643095Y-12425952D01*
X20633571Y-12406905D01*
X20633571Y-12330714D01*
X20643095Y-12311667D01*
X20662143Y-12302143D01*
X20700238Y-12302143D01*
X20719286Y-12311667D01*
X20728810Y-12330714D01*
X20728810Y-12349762D01*
X20633571Y-12368809D01*
X20805000Y-12425952D02*
X20824048Y-12435476D01*
X20862143Y-12435476D01*
X20881190Y-12425952D01*
X20890714Y-12406905D01*
X20890714Y-12397381D01*
X20881190Y-12378333D01*
X20862143Y-12368809D01*
X20833571Y-12368809D01*
X20814524Y-12359286D01*
X20805000Y-12340238D01*
X20805000Y-12330714D01*
X20814524Y-12311667D01*
X20833571Y-12302143D01*
X20862143Y-12302143D01*
X20881190Y-12311667D01*
X20957381Y-12511667D02*
X20966905Y-12502143D01*
X20985952Y-12473571D01*
X20995476Y-12454524D01*
X21005000Y-12425952D01*
X21014524Y-12378333D01*
X21014524Y-12340238D01*
X21005000Y-12292619D01*
X20995476Y-12264048D01*
X20985952Y-12245000D01*
X20966905Y-12216428D01*
X20957381Y-12206905D01*
D13*
X15995000Y-12609000D02*
G75*
G03*
X15995000Y-12609000I-38100J0D01*
G01*
D11*
X16290714Y-12499476D02*
X16309762Y-12499476D01*
X16328809Y-12509000D01*
X16338333Y-12518524D01*
X16347857Y-12537571D01*
X16357381Y-12575667D01*
X16357381Y-12623286D01*
X16347857Y-12661381D01*
X16338333Y-12680428D01*
X16328809Y-12689952D01*
X16309762Y-12699476D01*
X16290714Y-12699476D01*
X16271667Y-12689952D01*
X16262143Y-12680428D01*
X16252619Y-12661381D01*
X16243095Y-12623286D01*
X16243095Y-12575667D01*
X16252619Y-12537571D01*
X16262143Y-12518524D01*
X16271667Y-12509000D01*
X16290714Y-12499476D01*
X16443095Y-12680428D02*
X16452619Y-12689952D01*
X16443095Y-12699476D01*
X16433571Y-12689952D01*
X16443095Y-12680428D01*
X16443095Y-12699476D01*
X16519286Y-12499476D02*
X16652619Y-12499476D01*
X16566905Y-12699476D01*
X16814524Y-12499476D02*
X16776428Y-12499476D01*
X16757381Y-12509000D01*
X16747857Y-12518524D01*
X16728809Y-12547095D01*
X16719286Y-12585190D01*
X16719286Y-12661381D01*
X16728809Y-12680428D01*
X16738333Y-12689952D01*
X16757381Y-12699476D01*
X16795476Y-12699476D01*
X16814524Y-12689952D01*
X16824048Y-12680428D01*
X16833571Y-12661381D01*
X16833571Y-12613762D01*
X16824048Y-12594714D01*
X16814524Y-12585190D01*
X16795476Y-12575667D01*
X16757381Y-12575667D01*
X16738333Y-12585190D01*
X16728809Y-12594714D01*
X16719286Y-12613762D01*
X16909762Y-12518524D02*
X16919286Y-12509000D01*
X16938333Y-12499476D01*
X16985952Y-12499476D01*
X17005000Y-12509000D01*
X17014524Y-12518524D01*
X17024048Y-12537571D01*
X17024048Y-12556619D01*
X17014524Y-12585190D01*
X16900238Y-12699476D01*
X17024048Y-12699476D01*
X17109762Y-12699476D02*
X17109762Y-12566143D01*
X17109762Y-12585190D02*
X17119286Y-12575667D01*
X17138333Y-12566143D01*
X17166905Y-12566143D01*
X17185952Y-12575667D01*
X17195476Y-12594714D01*
X17195476Y-12699476D01*
X17195476Y-12594714D02*
X17205000Y-12575667D01*
X17224048Y-12566143D01*
X17252619Y-12566143D01*
X17271667Y-12575667D01*
X17281190Y-12594714D01*
X17281190Y-12699476D01*
X17376429Y-12699476D02*
X17376429Y-12566143D01*
X17376429Y-12585190D02*
X17385952Y-12575667D01*
X17405000Y-12566143D01*
X17433571Y-12566143D01*
X17452619Y-12575667D01*
X17462143Y-12594714D01*
X17462143Y-12699476D01*
X17462143Y-12594714D02*
X17471667Y-12575667D01*
X17490714Y-12566143D01*
X17519286Y-12566143D01*
X17538333Y-12575667D01*
X17547857Y-12594714D01*
X17547857Y-12699476D01*
X17938333Y-12489952D02*
X17766905Y-12747095D01*
X18195476Y-12499476D02*
X18214524Y-12499476D01*
X18233571Y-12509000D01*
X18243095Y-12518524D01*
X18252619Y-12537571D01*
X18262143Y-12575667D01*
X18262143Y-12623286D01*
X18252619Y-12661381D01*
X18243095Y-12680428D01*
X18233571Y-12689952D01*
X18214524Y-12699476D01*
X18195476Y-12699476D01*
X18176429Y-12689952D01*
X18166905Y-12680428D01*
X18157381Y-12661381D01*
X18147857Y-12623286D01*
X18147857Y-12575667D01*
X18157381Y-12537571D01*
X18166905Y-12518524D01*
X18176429Y-12509000D01*
X18195476Y-12499476D01*
X18347857Y-12680428D02*
X18357381Y-12689952D01*
X18347857Y-12699476D01*
X18338333Y-12689952D01*
X18347857Y-12680428D01*
X18347857Y-12699476D01*
X18481190Y-12499476D02*
X18500238Y-12499476D01*
X18519286Y-12509000D01*
X18528810Y-12518524D01*
X18538333Y-12537571D01*
X18547857Y-12575667D01*
X18547857Y-12623286D01*
X18538333Y-12661381D01*
X18528810Y-12680428D01*
X18519286Y-12689952D01*
X18500238Y-12699476D01*
X18481190Y-12699476D01*
X18462143Y-12689952D01*
X18452619Y-12680428D01*
X18443095Y-12661381D01*
X18433571Y-12623286D01*
X18433571Y-12575667D01*
X18443095Y-12537571D01*
X18452619Y-12518524D01*
X18462143Y-12509000D01*
X18481190Y-12499476D01*
X18614524Y-12499476D02*
X18738333Y-12499476D01*
X18671667Y-12575667D01*
X18700238Y-12575667D01*
X18719286Y-12585190D01*
X18728810Y-12594714D01*
X18738333Y-12613762D01*
X18738333Y-12661381D01*
X18728810Y-12680428D01*
X18719286Y-12689952D01*
X18700238Y-12699476D01*
X18643095Y-12699476D01*
X18624048Y-12689952D01*
X18614524Y-12680428D01*
X18862143Y-12499476D02*
X18881190Y-12499476D01*
X18900238Y-12509000D01*
X18909762Y-12518524D01*
X18919286Y-12537571D01*
X18928810Y-12575667D01*
X18928810Y-12623286D01*
X18919286Y-12661381D01*
X18909762Y-12680428D01*
X18900238Y-12689952D01*
X18881190Y-12699476D01*
X18862143Y-12699476D01*
X18843095Y-12689952D01*
X18833571Y-12680428D01*
X18824048Y-12661381D01*
X18814524Y-12623286D01*
X18814524Y-12575667D01*
X18824048Y-12537571D01*
X18833571Y-12518524D01*
X18843095Y-12509000D01*
X18862143Y-12499476D01*
X19052619Y-12499476D02*
X19071667Y-12499476D01*
X19090714Y-12509000D01*
X19100238Y-12518524D01*
X19109762Y-12537571D01*
X19119286Y-12575667D01*
X19119286Y-12623286D01*
X19109762Y-12661381D01*
X19100238Y-12680428D01*
X19090714Y-12689952D01*
X19071667Y-12699476D01*
X19052619Y-12699476D01*
X19033571Y-12689952D01*
X19024048Y-12680428D01*
X19014524Y-12661381D01*
X19005000Y-12623286D01*
X19005000Y-12575667D01*
X19014524Y-12537571D01*
X19024048Y-12518524D01*
X19033571Y-12509000D01*
X19052619Y-12499476D01*
X19195476Y-12499476D02*
X19195476Y-12537571D01*
X19271667Y-12499476D02*
X19271667Y-12537571D01*
X19566905Y-12775667D02*
X19557381Y-12766143D01*
X19538333Y-12737571D01*
X19528810Y-12718524D01*
X19519286Y-12689952D01*
X19509762Y-12642333D01*
X19509762Y-12604238D01*
X19519286Y-12556619D01*
X19528810Y-12528048D01*
X19538333Y-12509000D01*
X19557381Y-12480428D01*
X19566905Y-12470905D01*
X19747857Y-12699476D02*
X19633571Y-12699476D01*
X19690714Y-12699476D02*
X19690714Y-12499476D01*
X19671667Y-12528048D01*
X19652619Y-12547095D01*
X19633571Y-12556619D01*
X19919286Y-12499476D02*
X19881190Y-12499476D01*
X19862143Y-12509000D01*
X19852619Y-12518524D01*
X19833571Y-12547095D01*
X19824048Y-12585190D01*
X19824048Y-12661381D01*
X19833571Y-12680428D01*
X19843095Y-12689952D01*
X19862143Y-12699476D01*
X19900238Y-12699476D01*
X19919286Y-12689952D01*
X19928810Y-12680428D01*
X19938333Y-12661381D01*
X19938333Y-12613762D01*
X19928810Y-12594714D01*
X19919286Y-12585190D01*
X19900238Y-12575667D01*
X19862143Y-12575667D01*
X19843095Y-12585190D01*
X19833571Y-12594714D01*
X19824048Y-12613762D01*
X20176429Y-12699476D02*
X20176429Y-12499476D01*
X20262143Y-12699476D02*
X20262143Y-12594714D01*
X20252619Y-12575667D01*
X20233571Y-12566143D01*
X20205000Y-12566143D01*
X20185952Y-12575667D01*
X20176429Y-12585190D01*
X20385952Y-12699476D02*
X20366905Y-12689952D01*
X20357381Y-12680428D01*
X20347857Y-12661381D01*
X20347857Y-12604238D01*
X20357381Y-12585190D01*
X20366905Y-12575667D01*
X20385952Y-12566143D01*
X20414524Y-12566143D01*
X20433571Y-12575667D01*
X20443095Y-12585190D01*
X20452619Y-12604238D01*
X20452619Y-12661381D01*
X20443095Y-12680428D01*
X20433571Y-12689952D01*
X20414524Y-12699476D01*
X20385952Y-12699476D01*
X20566905Y-12699476D02*
X20547857Y-12689952D01*
X20538333Y-12670905D01*
X20538333Y-12499476D01*
X20719286Y-12689952D02*
X20700238Y-12699476D01*
X20662143Y-12699476D01*
X20643095Y-12689952D01*
X20633571Y-12670905D01*
X20633571Y-12594714D01*
X20643095Y-12575667D01*
X20662143Y-12566143D01*
X20700238Y-12566143D01*
X20719286Y-12575667D01*
X20728810Y-12594714D01*
X20728810Y-12613762D01*
X20633571Y-12632809D01*
X20805000Y-12689952D02*
X20824048Y-12699476D01*
X20862143Y-12699476D01*
X20881190Y-12689952D01*
X20890714Y-12670905D01*
X20890714Y-12661381D01*
X20881190Y-12642333D01*
X20862143Y-12632809D01*
X20833571Y-12632809D01*
X20814524Y-12623286D01*
X20805000Y-12604238D01*
X20805000Y-12594714D01*
X20814524Y-12575667D01*
X20833571Y-12566143D01*
X20862143Y-12566143D01*
X20881190Y-12575667D01*
X20957381Y-12775667D02*
X20966905Y-12766143D01*
X20985952Y-12737571D01*
X20995476Y-12718524D01*
X21005000Y-12689952D01*
X21014524Y-12642333D01*
X21014524Y-12604238D01*
X21005000Y-12556619D01*
X20995476Y-12528048D01*
X20985952Y-12509000D01*
X20966905Y-12480428D01*
X20957381Y-12470905D01*
D10*
X15945000Y-12823000D02*
X15945000Y-12923000D01*
X15895000Y-12873000D02*
X15995000Y-12873000D01*
D11*
X16357381Y-12963476D02*
X16243095Y-12963476D01*
X16300238Y-12963476D02*
X16300238Y-12763476D01*
X16281190Y-12792048D01*
X16262143Y-12811095D01*
X16243095Y-12820619D01*
X16443095Y-12944428D02*
X16452619Y-12953952D01*
X16443095Y-12963476D01*
X16433571Y-12953952D01*
X16443095Y-12944428D01*
X16443095Y-12963476D01*
X16576428Y-12763476D02*
X16595476Y-12763476D01*
X16614524Y-12773000D01*
X16624048Y-12782524D01*
X16633571Y-12801571D01*
X16643095Y-12839667D01*
X16643095Y-12887286D01*
X16633571Y-12925381D01*
X16624048Y-12944428D01*
X16614524Y-12953952D01*
X16595476Y-12963476D01*
X16576428Y-12963476D01*
X16557381Y-12953952D01*
X16547857Y-12944428D01*
X16538333Y-12925381D01*
X16528809Y-12887286D01*
X16528809Y-12839667D01*
X16538333Y-12801571D01*
X16547857Y-12782524D01*
X16557381Y-12773000D01*
X16576428Y-12763476D01*
X16766905Y-12763476D02*
X16785952Y-12763476D01*
X16805000Y-12773000D01*
X16814524Y-12782524D01*
X16824048Y-12801571D01*
X16833571Y-12839667D01*
X16833571Y-12887286D01*
X16824048Y-12925381D01*
X16814524Y-12944428D01*
X16805000Y-12953952D01*
X16785952Y-12963476D01*
X16766905Y-12963476D01*
X16747857Y-12953952D01*
X16738333Y-12944428D01*
X16728809Y-12925381D01*
X16719286Y-12887286D01*
X16719286Y-12839667D01*
X16728809Y-12801571D01*
X16738333Y-12782524D01*
X16747857Y-12773000D01*
X16766905Y-12763476D01*
X16957381Y-12763476D02*
X16976429Y-12763476D01*
X16995476Y-12773000D01*
X17005000Y-12782524D01*
X17014524Y-12801571D01*
X17024048Y-12839667D01*
X17024048Y-12887286D01*
X17014524Y-12925381D01*
X17005000Y-12944428D01*
X16995476Y-12953952D01*
X16976429Y-12963476D01*
X16957381Y-12963476D01*
X16938333Y-12953952D01*
X16928810Y-12944428D01*
X16919286Y-12925381D01*
X16909762Y-12887286D01*
X16909762Y-12839667D01*
X16919286Y-12801571D01*
X16928810Y-12782524D01*
X16938333Y-12773000D01*
X16957381Y-12763476D01*
X17109762Y-12963476D02*
X17109762Y-12830143D01*
X17109762Y-12849190D02*
X17119286Y-12839667D01*
X17138333Y-12830143D01*
X17166905Y-12830143D01*
X17185952Y-12839667D01*
X17195476Y-12858714D01*
X17195476Y-12963476D01*
X17195476Y-12858714D02*
X17205000Y-12839667D01*
X17224048Y-12830143D01*
X17252619Y-12830143D01*
X17271667Y-12839667D01*
X17281190Y-12858714D01*
X17281190Y-12963476D01*
X17376429Y-12963476D02*
X17376429Y-12830143D01*
X17376429Y-12849190D02*
X17385952Y-12839667D01*
X17405000Y-12830143D01*
X17433571Y-12830143D01*
X17452619Y-12839667D01*
X17462143Y-12858714D01*
X17462143Y-12963476D01*
X17462143Y-12858714D02*
X17471667Y-12839667D01*
X17490714Y-12830143D01*
X17519286Y-12830143D01*
X17538333Y-12839667D01*
X17547857Y-12858714D01*
X17547857Y-12963476D01*
X17938333Y-12753952D02*
X17766905Y-13011095D01*
X18195476Y-12763476D02*
X18214524Y-12763476D01*
X18233571Y-12773000D01*
X18243095Y-12782524D01*
X18252619Y-12801571D01*
X18262143Y-12839667D01*
X18262143Y-12887286D01*
X18252619Y-12925381D01*
X18243095Y-12944428D01*
X18233571Y-12953952D01*
X18214524Y-12963476D01*
X18195476Y-12963476D01*
X18176429Y-12953952D01*
X18166905Y-12944428D01*
X18157381Y-12925381D01*
X18147857Y-12887286D01*
X18147857Y-12839667D01*
X18157381Y-12801571D01*
X18166905Y-12782524D01*
X18176429Y-12773000D01*
X18195476Y-12763476D01*
X18347857Y-12944428D02*
X18357381Y-12953952D01*
X18347857Y-12963476D01*
X18338333Y-12953952D01*
X18347857Y-12944428D01*
X18347857Y-12963476D01*
X18481190Y-12763476D02*
X18500238Y-12763476D01*
X18519286Y-12773000D01*
X18528810Y-12782524D01*
X18538333Y-12801571D01*
X18547857Y-12839667D01*
X18547857Y-12887286D01*
X18538333Y-12925381D01*
X18528810Y-12944428D01*
X18519286Y-12953952D01*
X18500238Y-12963476D01*
X18481190Y-12963476D01*
X18462143Y-12953952D01*
X18452619Y-12944428D01*
X18443095Y-12925381D01*
X18433571Y-12887286D01*
X18433571Y-12839667D01*
X18443095Y-12801571D01*
X18452619Y-12782524D01*
X18462143Y-12773000D01*
X18481190Y-12763476D01*
X18614524Y-12763476D02*
X18738333Y-12763476D01*
X18671667Y-12839667D01*
X18700238Y-12839667D01*
X18719286Y-12849190D01*
X18728810Y-12858714D01*
X18738333Y-12877762D01*
X18738333Y-12925381D01*
X18728810Y-12944428D01*
X18719286Y-12953952D01*
X18700238Y-12963476D01*
X18643095Y-12963476D01*
X18624048Y-12953952D01*
X18614524Y-12944428D01*
X18833571Y-12963476D02*
X18871667Y-12963476D01*
X18890714Y-12953952D01*
X18900238Y-12944428D01*
X18919286Y-12915857D01*
X18928810Y-12877762D01*
X18928810Y-12801571D01*
X18919286Y-12782524D01*
X18909762Y-12773000D01*
X18890714Y-12763476D01*
X18852619Y-12763476D01*
X18833571Y-12773000D01*
X18824048Y-12782524D01*
X18814524Y-12801571D01*
X18814524Y-12849190D01*
X18824048Y-12868238D01*
X18833571Y-12877762D01*
X18852619Y-12887286D01*
X18890714Y-12887286D01*
X18909762Y-12877762D01*
X18919286Y-12868238D01*
X18928810Y-12849190D01*
X19100238Y-12830143D02*
X19100238Y-12963476D01*
X19052619Y-12753952D02*
X19005000Y-12896809D01*
X19128810Y-12896809D01*
X19195476Y-12763476D02*
X19195476Y-12801571D01*
X19271667Y-12763476D02*
X19271667Y-12801571D01*
X19566905Y-13039667D02*
X19557381Y-13030143D01*
X19538333Y-13001571D01*
X19528810Y-12982524D01*
X19519286Y-12953952D01*
X19509762Y-12906333D01*
X19509762Y-12868238D01*
X19519286Y-12820619D01*
X19528810Y-12792048D01*
X19538333Y-12773000D01*
X19557381Y-12744428D01*
X19566905Y-12734905D01*
X19747857Y-12963476D02*
X19633571Y-12963476D01*
X19690714Y-12963476D02*
X19690714Y-12763476D01*
X19671667Y-12792048D01*
X19652619Y-12811095D01*
X19633571Y-12820619D01*
X19919286Y-12830143D02*
X19919286Y-12963476D01*
X19871667Y-12753952D02*
X19824048Y-12896809D01*
X19947857Y-12896809D01*
X20176429Y-12963476D02*
X20176429Y-12763476D01*
X20262143Y-12963476D02*
X20262143Y-12858714D01*
X20252619Y-12839667D01*
X20233571Y-12830143D01*
X20205000Y-12830143D01*
X20185952Y-12839667D01*
X20176429Y-12849190D01*
X20385952Y-12963476D02*
X20366905Y-12953952D01*
X20357381Y-12944428D01*
X20347857Y-12925381D01*
X20347857Y-12868238D01*
X20357381Y-12849190D01*
X20366905Y-12839667D01*
X20385952Y-12830143D01*
X20414524Y-12830143D01*
X20433571Y-12839667D01*
X20443095Y-12849190D01*
X20452619Y-12868238D01*
X20452619Y-12925381D01*
X20443095Y-12944428D01*
X20433571Y-12953952D01*
X20414524Y-12963476D01*
X20385952Y-12963476D01*
X20566905Y-12963476D02*
X20547857Y-12953952D01*
X20538333Y-12934905D01*
X20538333Y-12763476D01*
X20719286Y-12953952D02*
X20700238Y-12963476D01*
X20662143Y-12963476D01*
X20643095Y-12953952D01*
X20633571Y-12934905D01*
X20633571Y-12858714D01*
X20643095Y-12839667D01*
X20662143Y-12830143D01*
X20700238Y-12830143D01*
X20719286Y-12839667D01*
X20728810Y-12858714D01*
X20728810Y-12877762D01*
X20633571Y-12896809D01*
X20805000Y-12953952D02*
X20824048Y-12963476D01*
X20862143Y-12963476D01*
X20881190Y-12953952D01*
X20890714Y-12934905D01*
X20890714Y-12925381D01*
X20881190Y-12906333D01*
X20862143Y-12896809D01*
X20833571Y-12896809D01*
X20814524Y-12887286D01*
X20805000Y-12868238D01*
X20805000Y-12858714D01*
X20814524Y-12839667D01*
X20833571Y-12830143D01*
X20862143Y-12830143D01*
X20881190Y-12839667D01*
X20957381Y-13039667D02*
X20966905Y-13030143D01*
X20985952Y-13001571D01*
X20995476Y-12982524D01*
X21005000Y-12953952D01*
X21014524Y-12906333D01*
X21014524Y-12868238D01*
X21005000Y-12820619D01*
X20995476Y-12792048D01*
X20985952Y-12773000D01*
X20966905Y-12744428D01*
X20957381Y-12734905D01*
D14*
X15975962Y-13182962D02*
X15975962Y-13091038D01*
X15884038Y-13091038D01*
X15884038Y-13182962D01*
X15975962Y-13182962D01*
D11*
X16357381Y-13227476D02*
X16243095Y-13227476D01*
X16300238Y-13227476D02*
X16300238Y-13027476D01*
X16281190Y-13056048D01*
X16262143Y-13075095D01*
X16243095Y-13084619D01*
X16443095Y-13208428D02*
X16452619Y-13217952D01*
X16443095Y-13227476D01*
X16433571Y-13217952D01*
X16443095Y-13208428D01*
X16443095Y-13227476D01*
X16519286Y-13027476D02*
X16643095Y-13027476D01*
X16576428Y-13103667D01*
X16605000Y-13103667D01*
X16624048Y-13113190D01*
X16633571Y-13122714D01*
X16643095Y-13141762D01*
X16643095Y-13189381D01*
X16633571Y-13208428D01*
X16624048Y-13217952D01*
X16605000Y-13227476D01*
X16547857Y-13227476D01*
X16528809Y-13217952D01*
X16519286Y-13208428D01*
X16766905Y-13027476D02*
X16785952Y-13027476D01*
X16805000Y-13037000D01*
X16814524Y-13046524D01*
X16824048Y-13065571D01*
X16833571Y-13103667D01*
X16833571Y-13151286D01*
X16824048Y-13189381D01*
X16814524Y-13208428D01*
X16805000Y-13217952D01*
X16785952Y-13227476D01*
X16766905Y-13227476D01*
X16747857Y-13217952D01*
X16738333Y-13208428D01*
X16728809Y-13189381D01*
X16719286Y-13151286D01*
X16719286Y-13103667D01*
X16728809Y-13065571D01*
X16738333Y-13046524D01*
X16747857Y-13037000D01*
X16766905Y-13027476D01*
X16957381Y-13027476D02*
X16976429Y-13027476D01*
X16995476Y-13037000D01*
X17005000Y-13046524D01*
X17014524Y-13065571D01*
X17024048Y-13103667D01*
X17024048Y-13151286D01*
X17014524Y-13189381D01*
X17005000Y-13208428D01*
X16995476Y-13217952D01*
X16976429Y-13227476D01*
X16957381Y-13227476D01*
X16938333Y-13217952D01*
X16928810Y-13208428D01*
X16919286Y-13189381D01*
X16909762Y-13151286D01*
X16909762Y-13103667D01*
X16919286Y-13065571D01*
X16928810Y-13046524D01*
X16938333Y-13037000D01*
X16957381Y-13027476D01*
X17109762Y-13227476D02*
X17109762Y-13094143D01*
X17109762Y-13113190D02*
X17119286Y-13103667D01*
X17138333Y-13094143D01*
X17166905Y-13094143D01*
X17185952Y-13103667D01*
X17195476Y-13122714D01*
X17195476Y-13227476D01*
X17195476Y-13122714D02*
X17205000Y-13103667D01*
X17224048Y-13094143D01*
X17252619Y-13094143D01*
X17271667Y-13103667D01*
X17281190Y-13122714D01*
X17281190Y-13227476D01*
X17376429Y-13227476D02*
X17376429Y-13094143D01*
X17376429Y-13113190D02*
X17385952Y-13103667D01*
X17405000Y-13094143D01*
X17433571Y-13094143D01*
X17452619Y-13103667D01*
X17462143Y-13122714D01*
X17462143Y-13227476D01*
X17462143Y-13122714D02*
X17471667Y-13103667D01*
X17490714Y-13094143D01*
X17519286Y-13094143D01*
X17538333Y-13103667D01*
X17547857Y-13122714D01*
X17547857Y-13227476D01*
X17938333Y-13017952D02*
X17766905Y-13275095D01*
X18195476Y-13027476D02*
X18214524Y-13027476D01*
X18233571Y-13037000D01*
X18243095Y-13046524D01*
X18252619Y-13065571D01*
X18262143Y-13103667D01*
X18262143Y-13151286D01*
X18252619Y-13189381D01*
X18243095Y-13208428D01*
X18233571Y-13217952D01*
X18214524Y-13227476D01*
X18195476Y-13227476D01*
X18176429Y-13217952D01*
X18166905Y-13208428D01*
X18157381Y-13189381D01*
X18147857Y-13151286D01*
X18147857Y-13103667D01*
X18157381Y-13065571D01*
X18166905Y-13046524D01*
X18176429Y-13037000D01*
X18195476Y-13027476D01*
X18347857Y-13208428D02*
X18357381Y-13217952D01*
X18347857Y-13227476D01*
X18338333Y-13217952D01*
X18347857Y-13208428D01*
X18347857Y-13227476D01*
X18481190Y-13027476D02*
X18500238Y-13027476D01*
X18519286Y-13037000D01*
X18528810Y-13046524D01*
X18538333Y-13065571D01*
X18547857Y-13103667D01*
X18547857Y-13151286D01*
X18538333Y-13189381D01*
X18528810Y-13208428D01*
X18519286Y-13217952D01*
X18500238Y-13227476D01*
X18481190Y-13227476D01*
X18462143Y-13217952D01*
X18452619Y-13208428D01*
X18443095Y-13189381D01*
X18433571Y-13151286D01*
X18433571Y-13103667D01*
X18443095Y-13065571D01*
X18452619Y-13046524D01*
X18462143Y-13037000D01*
X18481190Y-13027476D01*
X18728810Y-13027476D02*
X18633571Y-13027476D01*
X18624048Y-13122714D01*
X18633571Y-13113190D01*
X18652619Y-13103667D01*
X18700238Y-13103667D01*
X18719286Y-13113190D01*
X18728810Y-13122714D01*
X18738333Y-13141762D01*
X18738333Y-13189381D01*
X18728810Y-13208428D01*
X18719286Y-13217952D01*
X18700238Y-13227476D01*
X18652619Y-13227476D01*
X18633571Y-13217952D01*
X18624048Y-13208428D01*
X18928810Y-13227476D02*
X18814524Y-13227476D01*
X18871667Y-13227476D02*
X18871667Y-13027476D01*
X18852619Y-13056048D01*
X18833571Y-13075095D01*
X18814524Y-13084619D01*
X19005000Y-13046524D02*
X19014524Y-13037000D01*
X19033571Y-13027476D01*
X19081190Y-13027476D01*
X19100238Y-13037000D01*
X19109762Y-13046524D01*
X19119286Y-13065571D01*
X19119286Y-13084619D01*
X19109762Y-13113190D01*
X18995476Y-13227476D01*
X19119286Y-13227476D01*
X19195476Y-13027476D02*
X19195476Y-13065571D01*
X19271667Y-13027476D02*
X19271667Y-13065571D01*
X19566905Y-13303667D02*
X19557381Y-13294143D01*
X19538333Y-13265571D01*
X19528810Y-13246524D01*
X19519286Y-13217952D01*
X19509762Y-13170333D01*
X19509762Y-13132238D01*
X19519286Y-13084619D01*
X19528810Y-13056048D01*
X19538333Y-13037000D01*
X19557381Y-13008428D01*
X19566905Y-12998905D01*
X19728810Y-13094143D02*
X19728810Y-13227476D01*
X19681190Y-13017952D02*
X19633571Y-13160809D01*
X19757381Y-13160809D01*
X19985952Y-13227476D02*
X19985952Y-13027476D01*
X20071667Y-13227476D02*
X20071667Y-13122714D01*
X20062143Y-13103667D01*
X20043095Y-13094143D01*
X20014524Y-13094143D01*
X19995476Y-13103667D01*
X19985952Y-13113190D01*
X20195476Y-13227476D02*
X20176429Y-13217952D01*
X20166905Y-13208428D01*
X20157381Y-13189381D01*
X20157381Y-13132238D01*
X20166905Y-13113190D01*
X20176429Y-13103667D01*
X20195476Y-13094143D01*
X20224048Y-13094143D01*
X20243095Y-13103667D01*
X20252619Y-13113190D01*
X20262143Y-13132238D01*
X20262143Y-13189381D01*
X20252619Y-13208428D01*
X20243095Y-13217952D01*
X20224048Y-13227476D01*
X20195476Y-13227476D01*
X20376429Y-13227476D02*
X20357381Y-13217952D01*
X20347857Y-13198905D01*
X20347857Y-13027476D01*
X20528810Y-13217952D02*
X20509762Y-13227476D01*
X20471667Y-13227476D01*
X20452619Y-13217952D01*
X20443095Y-13198905D01*
X20443095Y-13122714D01*
X20452619Y-13103667D01*
X20471667Y-13094143D01*
X20509762Y-13094143D01*
X20528810Y-13103667D01*
X20538333Y-13122714D01*
X20538333Y-13141762D01*
X20443095Y-13160809D01*
X20614524Y-13217952D02*
X20633571Y-13227476D01*
X20671667Y-13227476D01*
X20690714Y-13217952D01*
X20700238Y-13198905D01*
X20700238Y-13189381D01*
X20690714Y-13170333D01*
X20671667Y-13160809D01*
X20643095Y-13160809D01*
X20624048Y-13151286D01*
X20614524Y-13132238D01*
X20614524Y-13122714D01*
X20624048Y-13103667D01*
X20643095Y-13094143D01*
X20671667Y-13094143D01*
X20690714Y-13103667D01*
X20766905Y-13303667D02*
X20776429Y-13294143D01*
X20795476Y-13265571D01*
X20805000Y-13246524D01*
X20814524Y-13217952D01*
X20824048Y-13170333D01*
X20824048Y-13132238D01*
X20814524Y-13084619D01*
X20805000Y-13056048D01*
X20795476Y-13037000D01*
X20776429Y-13008428D01*
X20766905Y-12998905D01*
M02*
