%TF.GenerationSoftware,KiCad,Pcbnew,(6.0.11)*%
%TF.CreationDate,2024-12-29T21:24:03+02:00*%
%TF.ProjectId,LEDdice,4c454464-6963-4652-9e6b-696361645f70,rev?*%
%TF.SameCoordinates,Original*%
%TF.FileFunction,Legend,Top*%
%TF.FilePolarity,Positive*%
%FSLAX46Y46*%
G04 Gerber Fmt 4.6, Leading zero omitted, Abs format (unit mm)*
G04 Created by KiCad (PCBNEW (6.0.11)) date 2024-12-29 21:24:03*
%MOMM*%
%LPD*%
G01*
G04 APERTURE LIST*
G04 Aperture macros list*
%AMRoundRect*
0 Rectangle with rounded corners*
0 $1 Rounding radius*
0 $2 $3 $4 $5 $6 $7 $8 $9 X,Y pos of 4 corners*
0 Add a 4 corners polygon primitive as box body*
4,1,4,$2,$3,$4,$5,$6,$7,$8,$9,$2,$3,0*
0 Add four circle primitives for the rounded corners*
1,1,$1+$1,$2,$3*
1,1,$1+$1,$4,$5*
1,1,$1+$1,$6,$7*
1,1,$1+$1,$8,$9*
0 Add four rect primitives between the rounded corners*
20,1,$1+$1,$2,$3,$4,$5,0*
20,1,$1+$1,$4,$5,$6,$7,0*
20,1,$1+$1,$6,$7,$8,$9,0*
20,1,$1+$1,$8,$9,$2,$3,0*%
G04 Aperture macros list end*
%ADD10C,0.300000*%
%ADD11C,0.150000*%
%ADD12C,0.125000*%
%ADD13C,0.120000*%
%ADD14O,1.700000X1.700000*%
%ADD15R,1.700000X1.700000*%
%ADD16R,1.524000X1.524000*%
%ADD17C,1.524000*%
%ADD18RoundRect,0.250000X-0.262500X-0.450000X0.262500X-0.450000X0.262500X0.450000X-0.262500X0.450000X0*%
%ADD19RoundRect,0.250000X0.250000X0.475000X-0.250000X0.475000X-0.250000X-0.475000X0.250000X-0.475000X0*%
%ADD20RoundRect,0.250000X-0.450000X0.262500X-0.450000X-0.262500X0.450000X-0.262500X0.450000X0.262500X0*%
%ADD21RoundRect,0.250000X0.262500X0.450000X-0.262500X0.450000X-0.262500X-0.450000X0.262500X-0.450000X0*%
%ADD22RoundRect,0.250000X-0.475000X0.250000X-0.475000X-0.250000X0.475000X-0.250000X0.475000X0.250000X0*%
%ADD23O,3.048000X1.850000*%
%ADD24RoundRect,0.250000X-0.250000X-0.475000X0.250000X-0.475000X0.250000X0.475000X-0.250000X0.475000X0*%
%ADD25RoundRect,0.250000X0.475000X-0.250000X0.475000X0.250000X-0.475000X0.250000X-0.475000X-0.250000X0*%
%ADD26RoundRect,0.075000X0.075000X0.662500X-0.075000X0.662500X-0.075000X-0.662500X0.075000X-0.662500X0*%
%ADD27RoundRect,0.075000X0.662500X0.075000X-0.662500X0.075000X-0.662500X-0.075000X0.662500X-0.075000X0*%
%ADD28R,1.550000X1.300000*%
G04 APERTURE END LIST*
D10*
X163993714Y-60368571D02*
X163493714Y-59654285D01*
X163136571Y-60368571D02*
X163136571Y-58868571D01*
X163708000Y-58868571D01*
X163850857Y-58940000D01*
X163922285Y-59011428D01*
X163993714Y-59154285D01*
X163993714Y-59368571D01*
X163922285Y-59511428D01*
X163850857Y-59582857D01*
X163708000Y-59654285D01*
X163136571Y-59654285D01*
X165279428Y-60368571D02*
X165279428Y-59582857D01*
X165208000Y-59440000D01*
X165065142Y-59368571D01*
X164779428Y-59368571D01*
X164636571Y-59440000D01*
X165279428Y-60297142D02*
X165136571Y-60368571D01*
X164779428Y-60368571D01*
X164636571Y-60297142D01*
X164565142Y-60154285D01*
X164565142Y-60011428D01*
X164636571Y-59868571D01*
X164779428Y-59797142D01*
X165136571Y-59797142D01*
X165279428Y-59725714D01*
X165993714Y-59368571D02*
X165993714Y-60368571D01*
X165993714Y-59511428D02*
X166065142Y-59440000D01*
X166208000Y-59368571D01*
X166422285Y-59368571D01*
X166565142Y-59440000D01*
X166636571Y-59582857D01*
X166636571Y-60368571D01*
X167993714Y-60368571D02*
X167993714Y-58868571D01*
X167993714Y-60297142D02*
X167850857Y-60368571D01*
X167565142Y-60368571D01*
X167422285Y-60297142D01*
X167350857Y-60225714D01*
X167279428Y-60082857D01*
X167279428Y-59654285D01*
X167350857Y-59511428D01*
X167422285Y-59440000D01*
X167565142Y-59368571D01*
X167850857Y-59368571D01*
X167993714Y-59440000D01*
X168922285Y-60368571D02*
X168779428Y-60297142D01*
X168708000Y-60225714D01*
X168636571Y-60082857D01*
X168636571Y-59654285D01*
X168708000Y-59511428D01*
X168779428Y-59440000D01*
X168922285Y-59368571D01*
X169136571Y-59368571D01*
X169279428Y-59440000D01*
X169350857Y-59511428D01*
X169422285Y-59654285D01*
X169422285Y-60082857D01*
X169350857Y-60225714D01*
X169279428Y-60297142D01*
X169136571Y-60368571D01*
X168922285Y-60368571D01*
X170065142Y-60368571D02*
X170065142Y-59368571D01*
X170065142Y-59511428D02*
X170136571Y-59440000D01*
X170279428Y-59368571D01*
X170493714Y-59368571D01*
X170636571Y-59440000D01*
X170708000Y-59582857D01*
X170708000Y-60368571D01*
X170708000Y-59582857D02*
X170779428Y-59440000D01*
X170922285Y-59368571D01*
X171136571Y-59368571D01*
X171279428Y-59440000D01*
X171350857Y-59582857D01*
X171350857Y-60368571D01*
X173208000Y-59368571D02*
X173208000Y-60368571D01*
X173208000Y-59511428D02*
X173279428Y-59440000D01*
X173422285Y-59368571D01*
X173636571Y-59368571D01*
X173779428Y-59440000D01*
X173850857Y-59582857D01*
X173850857Y-60368571D01*
X175208000Y-59368571D02*
X175208000Y-60368571D01*
X174565142Y-59368571D02*
X174565142Y-60154285D01*
X174636571Y-60297142D01*
X174779428Y-60368571D01*
X174993714Y-60368571D01*
X175136571Y-60297142D01*
X175208000Y-60225714D01*
X175922285Y-60368571D02*
X175922285Y-59368571D01*
X175922285Y-59511428D02*
X175993714Y-59440000D01*
X176136571Y-59368571D01*
X176350857Y-59368571D01*
X176493714Y-59440000D01*
X176565142Y-59582857D01*
X176565142Y-60368571D01*
X176565142Y-59582857D02*
X176636571Y-59440000D01*
X176779428Y-59368571D01*
X176993714Y-59368571D01*
X177136571Y-59440000D01*
X177208000Y-59582857D01*
X177208000Y-60368571D01*
X177922285Y-60368571D02*
X177922285Y-58868571D01*
X177922285Y-59440000D02*
X178065142Y-59368571D01*
X178350857Y-59368571D01*
X178493714Y-59440000D01*
X178565142Y-59511428D01*
X178636571Y-59654285D01*
X178636571Y-60082857D01*
X178565142Y-60225714D01*
X178493714Y-60297142D01*
X178350857Y-60368571D01*
X178065142Y-60368571D01*
X177922285Y-60297142D01*
X179850857Y-60297142D02*
X179708000Y-60368571D01*
X179422285Y-60368571D01*
X179279428Y-60297142D01*
X179208000Y-60154285D01*
X179208000Y-59582857D01*
X179279428Y-59440000D01*
X179422285Y-59368571D01*
X179708000Y-59368571D01*
X179850857Y-59440000D01*
X179922285Y-59582857D01*
X179922285Y-59725714D01*
X179208000Y-59868571D01*
X180565142Y-60368571D02*
X180565142Y-59368571D01*
X180565142Y-59654285D02*
X180636571Y-59511428D01*
X180708000Y-59440000D01*
X180850857Y-59368571D01*
X180993714Y-59368571D01*
D11*
X197834571Y-92670380D02*
X197834571Y-93384666D01*
X197786952Y-93527523D01*
X197691714Y-93622761D01*
X197548857Y-93670380D01*
X197453619Y-93670380D01*
X198739333Y-93003714D02*
X198739333Y-93670380D01*
X198310761Y-93003714D02*
X198310761Y-93527523D01*
X198358380Y-93622761D01*
X198453619Y-93670380D01*
X198596476Y-93670380D01*
X198691714Y-93622761D01*
X198739333Y-93575142D01*
X199215523Y-93670380D02*
X199215523Y-93003714D01*
X199215523Y-93098952D02*
X199263142Y-93051333D01*
X199358380Y-93003714D01*
X199501238Y-93003714D01*
X199596476Y-93051333D01*
X199644095Y-93146571D01*
X199644095Y-93670380D01*
X199644095Y-93146571D02*
X199691714Y-93051333D01*
X199786952Y-93003714D01*
X199929809Y-93003714D01*
X200025047Y-93051333D01*
X200072666Y-93146571D01*
X200072666Y-93670380D01*
X200548857Y-93003714D02*
X200548857Y-94003714D01*
X200548857Y-93051333D02*
X200644095Y-93003714D01*
X200834571Y-93003714D01*
X200929809Y-93051333D01*
X200977428Y-93098952D01*
X201025047Y-93194190D01*
X201025047Y-93479904D01*
X200977428Y-93575142D01*
X200929809Y-93622761D01*
X200834571Y-93670380D01*
X200644095Y-93670380D01*
X200548857Y-93622761D01*
X201834571Y-93622761D02*
X201739333Y-93670380D01*
X201548857Y-93670380D01*
X201453619Y-93622761D01*
X201406000Y-93527523D01*
X201406000Y-93146571D01*
X201453619Y-93051333D01*
X201548857Y-93003714D01*
X201739333Y-93003714D01*
X201834571Y-93051333D01*
X201882190Y-93146571D01*
X201882190Y-93241809D01*
X201406000Y-93337047D01*
X202310761Y-93670380D02*
X202310761Y-93003714D01*
X202310761Y-93194190D02*
X202358380Y-93098952D01*
X202406000Y-93051333D01*
X202501238Y-93003714D01*
X202596476Y-93003714D01*
X202882190Y-93622761D02*
X202977428Y-93670380D01*
X203167904Y-93670380D01*
X203263142Y-93622761D01*
X203310761Y-93527523D01*
X203310761Y-93479904D01*
X203263142Y-93384666D01*
X203167904Y-93337047D01*
X203025047Y-93337047D01*
X202929809Y-93289428D01*
X202882190Y-93194190D01*
X202882190Y-93146571D01*
X202929809Y-93051333D01*
X203025047Y-93003714D01*
X203167904Y-93003714D01*
X203263142Y-93051333D01*
X193238380Y-92598285D02*
X192238380Y-92598285D01*
X192238380Y-92217333D01*
X192286000Y-92122095D01*
X192333619Y-92074476D01*
X192428857Y-92026857D01*
X192571714Y-92026857D01*
X192666952Y-92074476D01*
X192714571Y-92122095D01*
X192762190Y-92217333D01*
X192762190Y-92598285D01*
X193238380Y-91598285D02*
X192571714Y-91598285D01*
X192762190Y-91598285D02*
X192666952Y-91550666D01*
X192619333Y-91503047D01*
X192571714Y-91407809D01*
X192571714Y-91312571D01*
X193238380Y-90836380D02*
X193190761Y-90931619D01*
X193143142Y-90979238D01*
X193047904Y-91026857D01*
X192762190Y-91026857D01*
X192666952Y-90979238D01*
X192619333Y-90931619D01*
X192571714Y-90836380D01*
X192571714Y-90693523D01*
X192619333Y-90598285D01*
X192666952Y-90550666D01*
X192762190Y-90503047D01*
X193047904Y-90503047D01*
X193143142Y-90550666D01*
X193190761Y-90598285D01*
X193238380Y-90693523D01*
X193238380Y-90836380D01*
X192571714Y-89645904D02*
X193381238Y-89645904D01*
X193476476Y-89693523D01*
X193524095Y-89741142D01*
X193571714Y-89836380D01*
X193571714Y-89979238D01*
X193524095Y-90074476D01*
X193190761Y-89645904D02*
X193238380Y-89741142D01*
X193238380Y-89931619D01*
X193190761Y-90026857D01*
X193143142Y-90074476D01*
X193047904Y-90122095D01*
X192762190Y-90122095D01*
X192666952Y-90074476D01*
X192619333Y-90026857D01*
X192571714Y-89931619D01*
X192571714Y-89741142D01*
X192619333Y-89645904D01*
X193238380Y-89169714D02*
X192571714Y-89169714D01*
X192762190Y-89169714D02*
X192666952Y-89122095D01*
X192619333Y-89074476D01*
X192571714Y-88979238D01*
X192571714Y-88884000D01*
X193238380Y-88122095D02*
X192714571Y-88122095D01*
X192619333Y-88169714D01*
X192571714Y-88264952D01*
X192571714Y-88455428D01*
X192619333Y-88550666D01*
X193190761Y-88122095D02*
X193238380Y-88217333D01*
X193238380Y-88455428D01*
X193190761Y-88550666D01*
X193095523Y-88598285D01*
X193000285Y-88598285D01*
X192905047Y-88550666D01*
X192857428Y-88455428D01*
X192857428Y-88217333D01*
X192809809Y-88122095D01*
X193238380Y-87645904D02*
X192571714Y-87645904D01*
X192666952Y-87645904D02*
X192619333Y-87598285D01*
X192571714Y-87503047D01*
X192571714Y-87360190D01*
X192619333Y-87264952D01*
X192714571Y-87217333D01*
X193238380Y-87217333D01*
X192714571Y-87217333D02*
X192619333Y-87169714D01*
X192571714Y-87074476D01*
X192571714Y-86931619D01*
X192619333Y-86836380D01*
X192714571Y-86788761D01*
X193238380Y-86788761D01*
X193238380Y-86312571D02*
X192571714Y-86312571D01*
X192666952Y-86312571D02*
X192619333Y-86264952D01*
X192571714Y-86169714D01*
X192571714Y-86026857D01*
X192619333Y-85931619D01*
X192714571Y-85884000D01*
X193238380Y-85884000D01*
X192714571Y-85884000D02*
X192619333Y-85836380D01*
X192571714Y-85741142D01*
X192571714Y-85598285D01*
X192619333Y-85503047D01*
X192714571Y-85455428D01*
X193238380Y-85455428D01*
X193238380Y-84979238D02*
X192571714Y-84979238D01*
X192238380Y-84979238D02*
X192286000Y-85026857D01*
X192333619Y-84979238D01*
X192286000Y-84931619D01*
X192238380Y-84979238D01*
X192333619Y-84979238D01*
X192571714Y-84503047D02*
X193238380Y-84503047D01*
X192666952Y-84503047D02*
X192619333Y-84455428D01*
X192571714Y-84360190D01*
X192571714Y-84217333D01*
X192619333Y-84122095D01*
X192714571Y-84074476D01*
X193238380Y-84074476D01*
X192571714Y-83169714D02*
X193381238Y-83169714D01*
X193476476Y-83217333D01*
X193524095Y-83264952D01*
X193571714Y-83360190D01*
X193571714Y-83503047D01*
X193524095Y-83598285D01*
X193190761Y-83169714D02*
X193238380Y-83264952D01*
X193238380Y-83455428D01*
X193190761Y-83550666D01*
X193143142Y-83598285D01*
X193047904Y-83645904D01*
X192762190Y-83645904D01*
X192666952Y-83598285D01*
X192619333Y-83550666D01*
X192571714Y-83455428D01*
X192571714Y-83264952D01*
X192619333Y-83169714D01*
X191397523Y-62428380D02*
X191397523Y-61428380D01*
X191778476Y-61428380D01*
X191873714Y-61476000D01*
X191921333Y-61523619D01*
X191968952Y-61618857D01*
X191968952Y-61761714D01*
X191921333Y-61856952D01*
X191873714Y-61904571D01*
X191778476Y-61952190D01*
X191397523Y-61952190D01*
X192540380Y-62428380D02*
X192445142Y-62380761D01*
X192397523Y-62333142D01*
X192349904Y-62237904D01*
X192349904Y-61952190D01*
X192397523Y-61856952D01*
X192445142Y-61809333D01*
X192540380Y-61761714D01*
X192683238Y-61761714D01*
X192778476Y-61809333D01*
X192826095Y-61856952D01*
X192873714Y-61952190D01*
X192873714Y-62237904D01*
X192826095Y-62333142D01*
X192778476Y-62380761D01*
X192683238Y-62428380D01*
X192540380Y-62428380D01*
X193207047Y-61761714D02*
X193397523Y-62428380D01*
X193588000Y-61952190D01*
X193778476Y-62428380D01*
X193968952Y-61761714D01*
X194730857Y-62380761D02*
X194635619Y-62428380D01*
X194445142Y-62428380D01*
X194349904Y-62380761D01*
X194302285Y-62285523D01*
X194302285Y-61904571D01*
X194349904Y-61809333D01*
X194445142Y-61761714D01*
X194635619Y-61761714D01*
X194730857Y-61809333D01*
X194778476Y-61904571D01*
X194778476Y-61999809D01*
X194302285Y-62095047D01*
X195207047Y-62428380D02*
X195207047Y-61761714D01*
X195207047Y-61952190D02*
X195254666Y-61856952D01*
X195302285Y-61809333D01*
X195397523Y-61761714D01*
X195492761Y-61761714D01*
X196540380Y-62380761D02*
X196635619Y-62428380D01*
X196826095Y-62428380D01*
X196921333Y-62380761D01*
X196968952Y-62285523D01*
X196968952Y-62237904D01*
X196921333Y-62142666D01*
X196826095Y-62095047D01*
X196683238Y-62095047D01*
X196588000Y-62047428D01*
X196540380Y-61952190D01*
X196540380Y-61904571D01*
X196588000Y-61809333D01*
X196683238Y-61761714D01*
X196826095Y-61761714D01*
X196921333Y-61809333D01*
X197302285Y-61761714D02*
X197492761Y-62428380D01*
X197683238Y-61952190D01*
X197873714Y-62428380D01*
X198064190Y-61761714D01*
X198445142Y-62428380D02*
X198445142Y-61761714D01*
X198445142Y-61428380D02*
X198397523Y-61476000D01*
X198445142Y-61523619D01*
X198492761Y-61476000D01*
X198445142Y-61428380D01*
X198445142Y-61523619D01*
X198778476Y-61761714D02*
X199159428Y-61761714D01*
X198921333Y-61428380D02*
X198921333Y-62285523D01*
X198968952Y-62380761D01*
X199064190Y-62428380D01*
X199159428Y-62428380D01*
X199921333Y-62380761D02*
X199826095Y-62428380D01*
X199635619Y-62428380D01*
X199540380Y-62380761D01*
X199492761Y-62333142D01*
X199445142Y-62237904D01*
X199445142Y-61952190D01*
X199492761Y-61856952D01*
X199540380Y-61809333D01*
X199635619Y-61761714D01*
X199826095Y-61761714D01*
X199921333Y-61809333D01*
X200349904Y-62428380D02*
X200349904Y-61428380D01*
X200778476Y-62428380D02*
X200778476Y-61904571D01*
X200730857Y-61809333D01*
X200635619Y-61761714D01*
X200492761Y-61761714D01*
X200397523Y-61809333D01*
X200349904Y-61856952D01*
D12*
X206063904Y-62610952D02*
X206063904Y-62325238D01*
X206863904Y-62468095D02*
X206063904Y-62468095D01*
X206063904Y-62206190D02*
X206863904Y-61872857D01*
X206063904Y-61872857D02*
X206863904Y-62206190D01*
X206863904Y-59773333D02*
X206482952Y-59940000D01*
X206863904Y-60059047D02*
X206063904Y-60059047D01*
X206063904Y-59868571D01*
X206102000Y-59820952D01*
X206140095Y-59797142D01*
X206216285Y-59773333D01*
X206330571Y-59773333D01*
X206406761Y-59797142D01*
X206444857Y-59820952D01*
X206482952Y-59868571D01*
X206482952Y-60059047D01*
X206063904Y-59606666D02*
X206863904Y-59273333D01*
X206063904Y-59273333D02*
X206863904Y-59606666D01*
X206559142Y-58150000D02*
X206559142Y-57769047D01*
X206863904Y-57959523D02*
X206254380Y-57959523D01*
X206063904Y-57578571D02*
X206063904Y-57269047D01*
X206368666Y-57435714D01*
X206368666Y-57364285D01*
X206406761Y-57316666D01*
X206444857Y-57292857D01*
X206521047Y-57269047D01*
X206711523Y-57269047D01*
X206787714Y-57292857D01*
X206825809Y-57316666D01*
X206863904Y-57364285D01*
X206863904Y-57507142D01*
X206825809Y-57554761D01*
X206787714Y-57578571D01*
X206787714Y-57054761D02*
X206825809Y-57030952D01*
X206863904Y-57054761D01*
X206825809Y-57078571D01*
X206787714Y-57054761D01*
X206863904Y-57054761D01*
X206063904Y-56864285D02*
X206063904Y-56554761D01*
X206368666Y-56721428D01*
X206368666Y-56650000D01*
X206406761Y-56602380D01*
X206444857Y-56578571D01*
X206521047Y-56554761D01*
X206711523Y-56554761D01*
X206787714Y-56578571D01*
X206825809Y-56602380D01*
X206863904Y-56650000D01*
X206863904Y-56792857D01*
X206825809Y-56840476D01*
X206787714Y-56864285D01*
X206063904Y-56411904D02*
X206863904Y-56245238D01*
X206063904Y-56078571D01*
X206102000Y-54990952D02*
X206063904Y-55038571D01*
X206063904Y-55110000D01*
X206102000Y-55181428D01*
X206178190Y-55229047D01*
X206254380Y-55252857D01*
X206406761Y-55276666D01*
X206521047Y-55276666D01*
X206673428Y-55252857D01*
X206749619Y-55229047D01*
X206825809Y-55181428D01*
X206863904Y-55110000D01*
X206863904Y-55062380D01*
X206825809Y-54990952D01*
X206787714Y-54967142D01*
X206521047Y-54967142D01*
X206521047Y-55062380D01*
X206863904Y-54752857D02*
X206063904Y-54752857D01*
X206863904Y-54467142D01*
X206063904Y-54467142D01*
X206863904Y-54229047D02*
X206063904Y-54229047D01*
X206063904Y-54110000D01*
X206102000Y-54038571D01*
X206178190Y-53990952D01*
X206254380Y-53967142D01*
X206406761Y-53943333D01*
X206521047Y-53943333D01*
X206673428Y-53967142D01*
X206749619Y-53990952D01*
X206825809Y-54038571D01*
X206863904Y-54110000D01*
X206863904Y-54229047D01*
D11*
%TO.C,J2*%
X203666666Y-64476380D02*
X203666666Y-65190666D01*
X203619047Y-65333523D01*
X203523809Y-65428761D01*
X203380952Y-65476380D01*
X203285714Y-65476380D01*
X204095238Y-64571619D02*
X204142857Y-64524000D01*
X204238095Y-64476380D01*
X204476190Y-64476380D01*
X204571428Y-64524000D01*
X204619047Y-64571619D01*
X204666666Y-64666857D01*
X204666666Y-64762095D01*
X204619047Y-64904952D01*
X204047619Y-65476380D01*
X204666666Y-65476380D01*
%TO.C,R4*%
X189571333Y-55698380D02*
X189238000Y-55222190D01*
X188999904Y-55698380D02*
X188999904Y-54698380D01*
X189380857Y-54698380D01*
X189476095Y-54746000D01*
X189523714Y-54793619D01*
X189571333Y-54888857D01*
X189571333Y-55031714D01*
X189523714Y-55126952D01*
X189476095Y-55174571D01*
X189380857Y-55222190D01*
X188999904Y-55222190D01*
X190428476Y-55031714D02*
X190428476Y-55698380D01*
X190190380Y-54650761D02*
X189952285Y-55365047D01*
X190571333Y-55365047D01*
%TO.C,C2*%
X193193333Y-77983142D02*
X193145714Y-78030761D01*
X193002857Y-78078380D01*
X192907619Y-78078380D01*
X192764761Y-78030761D01*
X192669523Y-77935523D01*
X192621904Y-77840285D01*
X192574285Y-77649809D01*
X192574285Y-77506952D01*
X192621904Y-77316476D01*
X192669523Y-77221238D01*
X192764761Y-77126000D01*
X192907619Y-77078380D01*
X193002857Y-77078380D01*
X193145714Y-77126000D01*
X193193333Y-77173619D01*
X193574285Y-77173619D02*
X193621904Y-77126000D01*
X193717142Y-77078380D01*
X193955238Y-77078380D01*
X194050476Y-77126000D01*
X194098095Y-77173619D01*
X194145714Y-77268857D01*
X194145714Y-77364095D01*
X194098095Y-77506952D01*
X193526666Y-78078380D01*
X194145714Y-78078380D01*
%TO.C,R9*%
X181808380Y-75858666D02*
X181332190Y-76192000D01*
X181808380Y-76430095D02*
X180808380Y-76430095D01*
X180808380Y-76049142D01*
X180856000Y-75953904D01*
X180903619Y-75906285D01*
X180998857Y-75858666D01*
X181141714Y-75858666D01*
X181236952Y-75906285D01*
X181284571Y-75953904D01*
X181332190Y-76049142D01*
X181332190Y-76430095D01*
X181808380Y-75382476D02*
X181808380Y-75192000D01*
X181760761Y-75096761D01*
X181713142Y-75049142D01*
X181570285Y-74953904D01*
X181379809Y-74906285D01*
X180998857Y-74906285D01*
X180903619Y-74953904D01*
X180856000Y-75001523D01*
X180808380Y-75096761D01*
X180808380Y-75287238D01*
X180856000Y-75382476D01*
X180903619Y-75430095D01*
X180998857Y-75477714D01*
X181236952Y-75477714D01*
X181332190Y-75430095D01*
X181379809Y-75382476D01*
X181427428Y-75287238D01*
X181427428Y-75096761D01*
X181379809Y-75001523D01*
X181332190Y-74953904D01*
X181236952Y-74906285D01*
%TO.C,R7*%
X165441333Y-84780380D02*
X165108000Y-84304190D01*
X164869904Y-84780380D02*
X164869904Y-83780380D01*
X165250857Y-83780380D01*
X165346095Y-83828000D01*
X165393714Y-83875619D01*
X165441333Y-83970857D01*
X165441333Y-84113714D01*
X165393714Y-84208952D01*
X165346095Y-84256571D01*
X165250857Y-84304190D01*
X164869904Y-84304190D01*
X165774666Y-83780380D02*
X166441333Y-83780380D01*
X166012761Y-84780380D01*
%TO.C,R10*%
X181729142Y-70810380D02*
X181395809Y-70334190D01*
X181157714Y-70810380D02*
X181157714Y-69810380D01*
X181538666Y-69810380D01*
X181633904Y-69858000D01*
X181681523Y-69905619D01*
X181729142Y-70000857D01*
X181729142Y-70143714D01*
X181681523Y-70238952D01*
X181633904Y-70286571D01*
X181538666Y-70334190D01*
X181157714Y-70334190D01*
X182681523Y-70810380D02*
X182110095Y-70810380D01*
X182395809Y-70810380D02*
X182395809Y-69810380D01*
X182300571Y-69953238D01*
X182205333Y-70048476D01*
X182110095Y-70096095D01*
X183300571Y-69810380D02*
X183395809Y-69810380D01*
X183491047Y-69858000D01*
X183538666Y-69905619D01*
X183586285Y-70000857D01*
X183633904Y-70191333D01*
X183633904Y-70429428D01*
X183586285Y-70619904D01*
X183538666Y-70715142D01*
X183491047Y-70762761D01*
X183395809Y-70810380D01*
X183300571Y-70810380D01*
X183205333Y-70762761D01*
X183157714Y-70715142D01*
X183110095Y-70619904D01*
X183062476Y-70429428D01*
X183062476Y-70191333D01*
X183110095Y-70000857D01*
X183157714Y-69905619D01*
X183205333Y-69858000D01*
X183300571Y-69810380D01*
%TO.C,C3*%
X207269142Y-75350666D02*
X207316761Y-75398285D01*
X207364380Y-75541142D01*
X207364380Y-75636380D01*
X207316761Y-75779238D01*
X207221523Y-75874476D01*
X207126285Y-75922095D01*
X206935809Y-75969714D01*
X206792952Y-75969714D01*
X206602476Y-75922095D01*
X206507238Y-75874476D01*
X206412000Y-75779238D01*
X206364380Y-75636380D01*
X206364380Y-75541142D01*
X206412000Y-75398285D01*
X206459619Y-75350666D01*
X206364380Y-75017333D02*
X206364380Y-74398285D01*
X206745333Y-74731619D01*
X206745333Y-74588761D01*
X206792952Y-74493523D01*
X206840571Y-74445904D01*
X206935809Y-74398285D01*
X207173904Y-74398285D01*
X207269142Y-74445904D01*
X207316761Y-74493523D01*
X207364380Y-74588761D01*
X207364380Y-74874476D01*
X207316761Y-74969714D01*
X207269142Y-75017333D01*
%TO.C,R13*%
X162679142Y-95194380D02*
X162345809Y-94718190D01*
X162107714Y-95194380D02*
X162107714Y-94194380D01*
X162488666Y-94194380D01*
X162583904Y-94242000D01*
X162631523Y-94289619D01*
X162679142Y-94384857D01*
X162679142Y-94527714D01*
X162631523Y-94622952D01*
X162583904Y-94670571D01*
X162488666Y-94718190D01*
X162107714Y-94718190D01*
X163631523Y-95194380D02*
X163060095Y-95194380D01*
X163345809Y-95194380D02*
X163345809Y-94194380D01*
X163250571Y-94337238D01*
X163155333Y-94432476D01*
X163060095Y-94480095D01*
X163964857Y-94194380D02*
X164583904Y-94194380D01*
X164250571Y-94575333D01*
X164393428Y-94575333D01*
X164488666Y-94622952D01*
X164536285Y-94670571D01*
X164583904Y-94765809D01*
X164583904Y-95003904D01*
X164536285Y-95099142D01*
X164488666Y-95146761D01*
X164393428Y-95194380D01*
X164107714Y-95194380D01*
X164012476Y-95146761D01*
X163964857Y-95099142D01*
%TO.C,R6*%
X182713333Y-73350380D02*
X182380000Y-72874190D01*
X182141904Y-73350380D02*
X182141904Y-72350380D01*
X182522857Y-72350380D01*
X182618095Y-72398000D01*
X182665714Y-72445619D01*
X182713333Y-72540857D01*
X182713333Y-72683714D01*
X182665714Y-72778952D01*
X182618095Y-72826571D01*
X182522857Y-72874190D01*
X182141904Y-72874190D01*
X183570476Y-72350380D02*
X183380000Y-72350380D01*
X183284761Y-72398000D01*
X183237142Y-72445619D01*
X183141904Y-72588476D01*
X183094285Y-72778952D01*
X183094285Y-73159904D01*
X183141904Y-73255142D01*
X183189523Y-73302761D01*
X183284761Y-73350380D01*
X183475238Y-73350380D01*
X183570476Y-73302761D01*
X183618095Y-73255142D01*
X183665714Y-73159904D01*
X183665714Y-72921809D01*
X183618095Y-72826571D01*
X183570476Y-72778952D01*
X183475238Y-72731333D01*
X183284761Y-72731333D01*
X183189523Y-72778952D01*
X183141904Y-72826571D01*
X183094285Y-72921809D01*
%TO.C,R3*%
X205192833Y-86925380D02*
X204859500Y-86449190D01*
X204621404Y-86925380D02*
X204621404Y-85925380D01*
X205002357Y-85925380D01*
X205097595Y-85973000D01*
X205145214Y-86020619D01*
X205192833Y-86115857D01*
X205192833Y-86258714D01*
X205145214Y-86353952D01*
X205097595Y-86401571D01*
X205002357Y-86449190D01*
X204621404Y-86449190D01*
X205526166Y-85925380D02*
X206145214Y-85925380D01*
X205811880Y-86306333D01*
X205954738Y-86306333D01*
X206049976Y-86353952D01*
X206097595Y-86401571D01*
X206145214Y-86496809D01*
X206145214Y-86734904D01*
X206097595Y-86830142D01*
X206049976Y-86877761D01*
X205954738Y-86925380D01*
X205669023Y-86925380D01*
X205573785Y-86877761D01*
X205526166Y-86830142D01*
%TO.C,R11*%
X191889142Y-69794380D02*
X191555809Y-69318190D01*
X191317714Y-69794380D02*
X191317714Y-68794380D01*
X191698666Y-68794380D01*
X191793904Y-68842000D01*
X191841523Y-68889619D01*
X191889142Y-68984857D01*
X191889142Y-69127714D01*
X191841523Y-69222952D01*
X191793904Y-69270571D01*
X191698666Y-69318190D01*
X191317714Y-69318190D01*
X192841523Y-69794380D02*
X192270095Y-69794380D01*
X192555809Y-69794380D02*
X192555809Y-68794380D01*
X192460571Y-68937238D01*
X192365333Y-69032476D01*
X192270095Y-69080095D01*
X193793904Y-69794380D02*
X193222476Y-69794380D01*
X193508190Y-69794380D02*
X193508190Y-68794380D01*
X193412952Y-68937238D01*
X193317714Y-69032476D01*
X193222476Y-69080095D01*
%TO.C,R8*%
X163012380Y-75858666D02*
X162536190Y-76192000D01*
X163012380Y-76430095D02*
X162012380Y-76430095D01*
X162012380Y-76049142D01*
X162060000Y-75953904D01*
X162107619Y-75906285D01*
X162202857Y-75858666D01*
X162345714Y-75858666D01*
X162440952Y-75906285D01*
X162488571Y-75953904D01*
X162536190Y-76049142D01*
X162536190Y-76430095D01*
X162440952Y-75287238D02*
X162393333Y-75382476D01*
X162345714Y-75430095D01*
X162250476Y-75477714D01*
X162202857Y-75477714D01*
X162107619Y-75430095D01*
X162060000Y-75382476D01*
X162012380Y-75287238D01*
X162012380Y-75096761D01*
X162060000Y-75001523D01*
X162107619Y-74953904D01*
X162202857Y-74906285D01*
X162250476Y-74906285D01*
X162345714Y-74953904D01*
X162393333Y-75001523D01*
X162440952Y-75096761D01*
X162440952Y-75287238D01*
X162488571Y-75382476D01*
X162536190Y-75430095D01*
X162631428Y-75477714D01*
X162821904Y-75477714D01*
X162917142Y-75430095D01*
X162964761Y-75382476D01*
X163012380Y-75287238D01*
X163012380Y-75096761D01*
X162964761Y-75001523D01*
X162917142Y-74953904D01*
X162821904Y-74906285D01*
X162631428Y-74906285D01*
X162536190Y-74953904D01*
X162488571Y-75001523D01*
X162440952Y-75096761D01*
%TO.C,J1*%
X200072666Y-82720380D02*
X200072666Y-83434666D01*
X200025047Y-83577523D01*
X199929809Y-83672761D01*
X199786952Y-83720380D01*
X199691714Y-83720380D01*
X201072666Y-83720380D02*
X200501238Y-83720380D01*
X200786952Y-83720380D02*
X200786952Y-82720380D01*
X200691714Y-82863238D01*
X200596476Y-82958476D01*
X200501238Y-83006095D01*
%TO.C,Generate Number SW2*%
X164315142Y-90686000D02*
X164219904Y-90638380D01*
X164077047Y-90638380D01*
X163934190Y-90686000D01*
X163838952Y-90781238D01*
X163791333Y-90876476D01*
X163743714Y-91066952D01*
X163743714Y-91209809D01*
X163791333Y-91400285D01*
X163838952Y-91495523D01*
X163934190Y-91590761D01*
X164077047Y-91638380D01*
X164172285Y-91638380D01*
X164315142Y-91590761D01*
X164362761Y-91543142D01*
X164362761Y-91209809D01*
X164172285Y-91209809D01*
X165172285Y-91590761D02*
X165077047Y-91638380D01*
X164886571Y-91638380D01*
X164791333Y-91590761D01*
X164743714Y-91495523D01*
X164743714Y-91114571D01*
X164791333Y-91019333D01*
X164886571Y-90971714D01*
X165077047Y-90971714D01*
X165172285Y-91019333D01*
X165219904Y-91114571D01*
X165219904Y-91209809D01*
X164743714Y-91305047D01*
X165648476Y-90971714D02*
X165648476Y-91638380D01*
X165648476Y-91066952D02*
X165696095Y-91019333D01*
X165791333Y-90971714D01*
X165934190Y-90971714D01*
X166029428Y-91019333D01*
X166077047Y-91114571D01*
X166077047Y-91638380D01*
X166934190Y-91590761D02*
X166838952Y-91638380D01*
X166648476Y-91638380D01*
X166553238Y-91590761D01*
X166505619Y-91495523D01*
X166505619Y-91114571D01*
X166553238Y-91019333D01*
X166648476Y-90971714D01*
X166838952Y-90971714D01*
X166934190Y-91019333D01*
X166981809Y-91114571D01*
X166981809Y-91209809D01*
X166505619Y-91305047D01*
X167410380Y-91638380D02*
X167410380Y-90971714D01*
X167410380Y-91162190D02*
X167458000Y-91066952D01*
X167505619Y-91019333D01*
X167600857Y-90971714D01*
X167696095Y-90971714D01*
X168458000Y-91638380D02*
X168458000Y-91114571D01*
X168410380Y-91019333D01*
X168315142Y-90971714D01*
X168124666Y-90971714D01*
X168029428Y-91019333D01*
X168458000Y-91590761D02*
X168362761Y-91638380D01*
X168124666Y-91638380D01*
X168029428Y-91590761D01*
X167981809Y-91495523D01*
X167981809Y-91400285D01*
X168029428Y-91305047D01*
X168124666Y-91257428D01*
X168362761Y-91257428D01*
X168458000Y-91209809D01*
X168791333Y-90971714D02*
X169172285Y-90971714D01*
X168934190Y-90638380D02*
X168934190Y-91495523D01*
X168981809Y-91590761D01*
X169077047Y-91638380D01*
X169172285Y-91638380D01*
X169886571Y-91590761D02*
X169791333Y-91638380D01*
X169600857Y-91638380D01*
X169505619Y-91590761D01*
X169458000Y-91495523D01*
X169458000Y-91114571D01*
X169505619Y-91019333D01*
X169600857Y-90971714D01*
X169791333Y-90971714D01*
X169886571Y-91019333D01*
X169934190Y-91114571D01*
X169934190Y-91209809D01*
X169458000Y-91305047D01*
X171124666Y-91638380D02*
X171124666Y-90638380D01*
X171696095Y-91638380D01*
X171696095Y-90638380D01*
X172600857Y-90971714D02*
X172600857Y-91638380D01*
X172172285Y-90971714D02*
X172172285Y-91495523D01*
X172219904Y-91590761D01*
X172315142Y-91638380D01*
X172458000Y-91638380D01*
X172553238Y-91590761D01*
X172600857Y-91543142D01*
X173077047Y-91638380D02*
X173077047Y-90971714D01*
X173077047Y-91066952D02*
X173124666Y-91019333D01*
X173219904Y-90971714D01*
X173362761Y-90971714D01*
X173458000Y-91019333D01*
X173505619Y-91114571D01*
X173505619Y-91638380D01*
X173505619Y-91114571D02*
X173553238Y-91019333D01*
X173648476Y-90971714D01*
X173791333Y-90971714D01*
X173886571Y-91019333D01*
X173934190Y-91114571D01*
X173934190Y-91638380D01*
X174410380Y-91638380D02*
X174410380Y-90638380D01*
X174410380Y-91019333D02*
X174505619Y-90971714D01*
X174696095Y-90971714D01*
X174791333Y-91019333D01*
X174838952Y-91066952D01*
X174886571Y-91162190D01*
X174886571Y-91447904D01*
X174838952Y-91543142D01*
X174791333Y-91590761D01*
X174696095Y-91638380D01*
X174505619Y-91638380D01*
X174410380Y-91590761D01*
X175696095Y-91590761D02*
X175600857Y-91638380D01*
X175410380Y-91638380D01*
X175315142Y-91590761D01*
X175267523Y-91495523D01*
X175267523Y-91114571D01*
X175315142Y-91019333D01*
X175410380Y-90971714D01*
X175600857Y-90971714D01*
X175696095Y-91019333D01*
X175743714Y-91114571D01*
X175743714Y-91209809D01*
X175267523Y-91305047D01*
X176172285Y-91638380D02*
X176172285Y-90971714D01*
X176172285Y-91162190D02*
X176219904Y-91066952D01*
X176267523Y-91019333D01*
X176362761Y-90971714D01*
X176458000Y-90971714D01*
X177505619Y-91590761D02*
X177648476Y-91638380D01*
X177886571Y-91638380D01*
X177981809Y-91590761D01*
X178029428Y-91543142D01*
X178077047Y-91447904D01*
X178077047Y-91352666D01*
X178029428Y-91257428D01*
X177981809Y-91209809D01*
X177886571Y-91162190D01*
X177696095Y-91114571D01*
X177600857Y-91066952D01*
X177553238Y-91019333D01*
X177505619Y-90924095D01*
X177505619Y-90828857D01*
X177553238Y-90733619D01*
X177600857Y-90686000D01*
X177696095Y-90638380D01*
X177934190Y-90638380D01*
X178077047Y-90686000D01*
X178410380Y-90638380D02*
X178648476Y-91638380D01*
X178838952Y-90924095D01*
X179029428Y-91638380D01*
X179267523Y-90638380D01*
X179600857Y-90733619D02*
X179648476Y-90686000D01*
X179743714Y-90638380D01*
X179981809Y-90638380D01*
X180077047Y-90686000D01*
X180124666Y-90733619D01*
X180172285Y-90828857D01*
X180172285Y-90924095D01*
X180124666Y-91066952D01*
X179553238Y-91638380D01*
X180172285Y-91638380D01*
%TO.C,C5*%
X202779333Y-80113142D02*
X202731714Y-80160761D01*
X202588857Y-80208380D01*
X202493619Y-80208380D01*
X202350761Y-80160761D01*
X202255523Y-80065523D01*
X202207904Y-79970285D01*
X202160285Y-79779809D01*
X202160285Y-79636952D01*
X202207904Y-79446476D01*
X202255523Y-79351238D01*
X202350761Y-79256000D01*
X202493619Y-79208380D01*
X202588857Y-79208380D01*
X202731714Y-79256000D01*
X202779333Y-79303619D01*
X203684095Y-79208380D02*
X203207904Y-79208380D01*
X203160285Y-79684571D01*
X203207904Y-79636952D01*
X203303142Y-79589333D01*
X203541238Y-79589333D01*
X203636476Y-79636952D01*
X203684095Y-79684571D01*
X203731714Y-79779809D01*
X203731714Y-80017904D01*
X203684095Y-80113142D01*
X203636476Y-80160761D01*
X203541238Y-80208380D01*
X203303142Y-80208380D01*
X203207904Y-80160761D01*
X203160285Y-80113142D01*
%TO.C,R1*%
X203795333Y-110814380D02*
X203462000Y-110338190D01*
X203223904Y-110814380D02*
X203223904Y-109814380D01*
X203604857Y-109814380D01*
X203700095Y-109862000D01*
X203747714Y-109909619D01*
X203795333Y-110004857D01*
X203795333Y-110147714D01*
X203747714Y-110242952D01*
X203700095Y-110290571D01*
X203604857Y-110338190D01*
X203223904Y-110338190D01*
X204747714Y-110814380D02*
X204176285Y-110814380D01*
X204462000Y-110814380D02*
X204462000Y-109814380D01*
X204366761Y-109957238D01*
X204271523Y-110052476D01*
X204176285Y-110100095D01*
%TO.C,C4*%
X207367142Y-69204666D02*
X207414761Y-69252285D01*
X207462380Y-69395142D01*
X207462380Y-69490380D01*
X207414761Y-69633238D01*
X207319523Y-69728476D01*
X207224285Y-69776095D01*
X207033809Y-69823714D01*
X206890952Y-69823714D01*
X206700476Y-69776095D01*
X206605238Y-69728476D01*
X206510000Y-69633238D01*
X206462380Y-69490380D01*
X206462380Y-69395142D01*
X206510000Y-69252285D01*
X206557619Y-69204666D01*
X206795714Y-68347523D02*
X207462380Y-68347523D01*
X206414761Y-68585619D02*
X207129047Y-68823714D01*
X207129047Y-68204666D01*
%TO.C,U1*%
X198238095Y-76802380D02*
X198238095Y-77611904D01*
X198285714Y-77707142D01*
X198333333Y-77754761D01*
X198428571Y-77802380D01*
X198619047Y-77802380D01*
X198714285Y-77754761D01*
X198761904Y-77707142D01*
X198809523Y-77611904D01*
X198809523Y-76802380D01*
X199809523Y-77802380D02*
X199238095Y-77802380D01*
X199523809Y-77802380D02*
X199523809Y-76802380D01*
X199428571Y-76945238D01*
X199333333Y-77040476D01*
X199238095Y-77088095D01*
%TO.C,R5*%
X191857333Y-72080380D02*
X191524000Y-71604190D01*
X191285904Y-72080380D02*
X191285904Y-71080380D01*
X191666857Y-71080380D01*
X191762095Y-71128000D01*
X191809714Y-71175619D01*
X191857333Y-71270857D01*
X191857333Y-71413714D01*
X191809714Y-71508952D01*
X191762095Y-71556571D01*
X191666857Y-71604190D01*
X191285904Y-71604190D01*
X192762095Y-71080380D02*
X192285904Y-71080380D01*
X192238285Y-71556571D01*
X192285904Y-71508952D01*
X192381142Y-71461333D01*
X192619238Y-71461333D01*
X192714476Y-71508952D01*
X192762095Y-71556571D01*
X192809714Y-71651809D01*
X192809714Y-71889904D01*
X192762095Y-71985142D01*
X192714476Y-72032761D01*
X192619238Y-72080380D01*
X192381142Y-72080380D01*
X192285904Y-72032761D01*
X192238285Y-71985142D01*
%TO.C,R12*%
X169029142Y-84780380D02*
X168695809Y-84304190D01*
X168457714Y-84780380D02*
X168457714Y-83780380D01*
X168838666Y-83780380D01*
X168933904Y-83828000D01*
X168981523Y-83875619D01*
X169029142Y-83970857D01*
X169029142Y-84113714D01*
X168981523Y-84208952D01*
X168933904Y-84256571D01*
X168838666Y-84304190D01*
X168457714Y-84304190D01*
X169981523Y-84780380D02*
X169410095Y-84780380D01*
X169695809Y-84780380D02*
X169695809Y-83780380D01*
X169600571Y-83923238D01*
X169505333Y-84018476D01*
X169410095Y-84066095D01*
X170362476Y-83875619D02*
X170410095Y-83828000D01*
X170505333Y-83780380D01*
X170743428Y-83780380D01*
X170838666Y-83828000D01*
X170886285Y-83875619D01*
X170933904Y-83970857D01*
X170933904Y-84066095D01*
X170886285Y-84208952D01*
X170314857Y-84780380D01*
X170933904Y-84780380D01*
%TO.C,Reset SW1*%
X192857142Y-102828380D02*
X192523809Y-102352190D01*
X192285714Y-102828380D02*
X192285714Y-101828380D01*
X192666666Y-101828380D01*
X192761904Y-101876000D01*
X192809523Y-101923619D01*
X192857142Y-102018857D01*
X192857142Y-102161714D01*
X192809523Y-102256952D01*
X192761904Y-102304571D01*
X192666666Y-102352190D01*
X192285714Y-102352190D01*
X193666666Y-102780761D02*
X193571428Y-102828380D01*
X193380952Y-102828380D01*
X193285714Y-102780761D01*
X193238095Y-102685523D01*
X193238095Y-102304571D01*
X193285714Y-102209333D01*
X193380952Y-102161714D01*
X193571428Y-102161714D01*
X193666666Y-102209333D01*
X193714285Y-102304571D01*
X193714285Y-102399809D01*
X193238095Y-102495047D01*
X194095238Y-102780761D02*
X194190476Y-102828380D01*
X194380952Y-102828380D01*
X194476190Y-102780761D01*
X194523809Y-102685523D01*
X194523809Y-102637904D01*
X194476190Y-102542666D01*
X194380952Y-102495047D01*
X194238095Y-102495047D01*
X194142857Y-102447428D01*
X194095238Y-102352190D01*
X194095238Y-102304571D01*
X194142857Y-102209333D01*
X194238095Y-102161714D01*
X194380952Y-102161714D01*
X194476190Y-102209333D01*
X195333333Y-102780761D02*
X195238095Y-102828380D01*
X195047619Y-102828380D01*
X194952380Y-102780761D01*
X194904761Y-102685523D01*
X194904761Y-102304571D01*
X194952380Y-102209333D01*
X195047619Y-102161714D01*
X195238095Y-102161714D01*
X195333333Y-102209333D01*
X195380952Y-102304571D01*
X195380952Y-102399809D01*
X194904761Y-102495047D01*
X195666666Y-102161714D02*
X196047619Y-102161714D01*
X195809523Y-101828380D02*
X195809523Y-102685523D01*
X195857142Y-102780761D01*
X195952380Y-102828380D01*
X196047619Y-102828380D01*
X197095238Y-102780761D02*
X197238095Y-102828380D01*
X197476190Y-102828380D01*
X197571428Y-102780761D01*
X197619047Y-102733142D01*
X197666666Y-102637904D01*
X197666666Y-102542666D01*
X197619047Y-102447428D01*
X197571428Y-102399809D01*
X197476190Y-102352190D01*
X197285714Y-102304571D01*
X197190476Y-102256952D01*
X197142857Y-102209333D01*
X197095238Y-102114095D01*
X197095238Y-102018857D01*
X197142857Y-101923619D01*
X197190476Y-101876000D01*
X197285714Y-101828380D01*
X197523809Y-101828380D01*
X197666666Y-101876000D01*
X198000000Y-101828380D02*
X198238095Y-102828380D01*
X198428571Y-102114095D01*
X198619047Y-102828380D01*
X198857142Y-101828380D01*
X199761904Y-102828380D02*
X199190476Y-102828380D01*
X199476190Y-102828380D02*
X199476190Y-101828380D01*
X199380952Y-101971238D01*
X199285714Y-102066476D01*
X199190476Y-102114095D01*
%TO.C,C7*%
X171537333Y-110749142D02*
X171489714Y-110796761D01*
X171346857Y-110844380D01*
X171251619Y-110844380D01*
X171108761Y-110796761D01*
X171013523Y-110701523D01*
X170965904Y-110606285D01*
X170918285Y-110415809D01*
X170918285Y-110272952D01*
X170965904Y-110082476D01*
X171013523Y-109987238D01*
X171108761Y-109892000D01*
X171251619Y-109844380D01*
X171346857Y-109844380D01*
X171489714Y-109892000D01*
X171537333Y-109939619D01*
X171870666Y-109844380D02*
X172537333Y-109844380D01*
X172108761Y-110844380D01*
%TO.C,C1*%
X195921333Y-113387142D02*
X195873714Y-113434761D01*
X195730857Y-113482380D01*
X195635619Y-113482380D01*
X195492761Y-113434761D01*
X195397523Y-113339523D01*
X195349904Y-113244285D01*
X195302285Y-113053809D01*
X195302285Y-112910952D01*
X195349904Y-112720476D01*
X195397523Y-112625238D01*
X195492761Y-112530000D01*
X195635619Y-112482380D01*
X195730857Y-112482380D01*
X195873714Y-112530000D01*
X195921333Y-112577619D01*
X196873714Y-113482380D02*
X196302285Y-113482380D01*
X196588000Y-113482380D02*
X196588000Y-112482380D01*
X196492761Y-112625238D01*
X196397523Y-112720476D01*
X196302285Y-112768095D01*
%TO.C,J3*%
X189912666Y-81450380D02*
X189912666Y-82164666D01*
X189865047Y-82307523D01*
X189769809Y-82402761D01*
X189626952Y-82450380D01*
X189531714Y-82450380D01*
X190293619Y-81450380D02*
X190912666Y-81450380D01*
X190579333Y-81831333D01*
X190722190Y-81831333D01*
X190817428Y-81878952D01*
X190865047Y-81926571D01*
X190912666Y-82021809D01*
X190912666Y-82259904D01*
X190865047Y-82355142D01*
X190817428Y-82402761D01*
X190722190Y-82450380D01*
X190436476Y-82450380D01*
X190341238Y-82402761D01*
X190293619Y-82355142D01*
%TO.C,C6*%
X185777142Y-90082666D02*
X185824761Y-90130285D01*
X185872380Y-90273142D01*
X185872380Y-90368380D01*
X185824761Y-90511238D01*
X185729523Y-90606476D01*
X185634285Y-90654095D01*
X185443809Y-90701714D01*
X185300952Y-90701714D01*
X185110476Y-90654095D01*
X185015238Y-90606476D01*
X184920000Y-90511238D01*
X184872380Y-90368380D01*
X184872380Y-90273142D01*
X184920000Y-90130285D01*
X184967619Y-90082666D01*
X184872380Y-89225523D02*
X184872380Y-89416000D01*
X184920000Y-89511238D01*
X184967619Y-89558857D01*
X185110476Y-89654095D01*
X185300952Y-89701714D01*
X185681904Y-89701714D01*
X185777142Y-89654095D01*
X185824761Y-89606476D01*
X185872380Y-89511238D01*
X185872380Y-89320761D01*
X185824761Y-89225523D01*
X185777142Y-89177904D01*
X185681904Y-89130285D01*
X185443809Y-89130285D01*
X185348571Y-89177904D01*
X185300952Y-89225523D01*
X185253333Y-89320761D01*
X185253333Y-89511238D01*
X185300952Y-89606476D01*
X185348571Y-89654095D01*
X185443809Y-89701714D01*
%TO.C,R2*%
X195413333Y-86925380D02*
X195080000Y-86449190D01*
X194841904Y-86925380D02*
X194841904Y-85925380D01*
X195222857Y-85925380D01*
X195318095Y-85973000D01*
X195365714Y-86020619D01*
X195413333Y-86115857D01*
X195413333Y-86258714D01*
X195365714Y-86353952D01*
X195318095Y-86401571D01*
X195222857Y-86449190D01*
X194841904Y-86449190D01*
X195794285Y-86020619D02*
X195841904Y-85973000D01*
X195937142Y-85925380D01*
X196175238Y-85925380D01*
X196270476Y-85973000D01*
X196318095Y-86020619D01*
X196365714Y-86115857D01*
X196365714Y-86211095D01*
X196318095Y-86353952D01*
X195746666Y-86925380D01*
X196365714Y-86925380D01*
D13*
%TO.C,J2*%
X205330000Y-60960000D02*
X205330000Y-53280000D01*
X205330000Y-63560000D02*
X204000000Y-63560000D01*
X205330000Y-60960000D02*
X202670000Y-60960000D01*
X205330000Y-53280000D02*
X202670000Y-53280000D01*
X205330000Y-62230000D02*
X205330000Y-63560000D01*
X202670000Y-60960000D02*
X202670000Y-53280000D01*
%TO.C,U3*%
X194992000Y-53370000D02*
X194992000Y-53010000D01*
X200250000Y-53010001D02*
X197083333Y-53010000D01*
X194992000Y-53010000D02*
X191690000Y-53010000D01*
X191690000Y-53010000D02*
X191690000Y-60989999D01*
X197083333Y-53010000D02*
X197083333Y-53370000D01*
X200250000Y-60990000D02*
X200250000Y-53010001D01*
X197083333Y-53370000D02*
X194992000Y-53370000D01*
X191690000Y-60989999D02*
X200250000Y-60990000D01*
%TO.C,R4*%
X189510936Y-56161000D02*
X189965064Y-56161000D01*
X189510936Y-57631000D02*
X189965064Y-57631000D01*
%TO.C,C2*%
X193621252Y-75211000D02*
X193098748Y-75211000D01*
X193621252Y-76681000D02*
X193098748Y-76681000D01*
%TO.C,R9*%
X180313000Y-75464936D02*
X180313000Y-75919064D01*
X178843000Y-75464936D02*
X178843000Y-75919064D01*
%TO.C,R7*%
X165380936Y-81815000D02*
X165835064Y-81815000D01*
X165380936Y-83285000D02*
X165835064Y-83285000D01*
%TO.C,R10*%
X185901064Y-69623000D02*
X185446936Y-69623000D01*
X185901064Y-71093000D02*
X185446936Y-71093000D01*
%TO.C,C3*%
X204497000Y-74922748D02*
X204497000Y-75445252D01*
X205967000Y-74922748D02*
X205967000Y-75445252D01*
%TO.C,R13*%
X163094936Y-92229000D02*
X163549064Y-92229000D01*
X163094936Y-93699000D02*
X163549064Y-93699000D01*
%TO.C,R6*%
X185901064Y-72163000D02*
X185446936Y-72163000D01*
X185901064Y-73633000D02*
X185446936Y-73633000D01*
%TO.C,R3*%
X205132436Y-88858000D02*
X205586564Y-88858000D01*
X205132436Y-87388000D02*
X205586564Y-87388000D01*
%TO.C,R11*%
X189711064Y-69823000D02*
X189256936Y-69823000D01*
X189711064Y-68353000D02*
X189256936Y-68353000D01*
%TO.C,R8*%
X163603000Y-75464936D02*
X163603000Y-75919064D01*
X165073000Y-75464936D02*
X165073000Y-75919064D01*
%TO.C,J1*%
X200406000Y-84268000D02*
X203006000Y-84268000D01*
X197806000Y-92008000D02*
X203006000Y-92008000D01*
X197806000Y-86868000D02*
X200406000Y-86868000D01*
X197806000Y-84268000D02*
X199136000Y-84268000D01*
X197806000Y-85598000D02*
X197806000Y-84268000D01*
X203006000Y-84268000D02*
X203006000Y-92008000D01*
X200406000Y-86868000D02*
X200406000Y-84268000D01*
X197806000Y-86868000D02*
X197806000Y-92008000D01*
%TO.C,Generate Number SW2*%
X165860000Y-102070000D02*
X165860000Y-98930000D01*
X165860000Y-94350000D02*
X178160000Y-94350000D01*
X178160000Y-106650000D02*
X165860000Y-106650000D01*
X178160000Y-103930000D02*
X178160000Y-106650000D01*
X178160000Y-98930000D02*
X178160000Y-102070000D01*
X165860000Y-106650000D02*
X165860000Y-103930000D01*
X165860000Y-97070000D02*
X165860000Y-94350000D01*
X178160000Y-94350000D02*
X178160000Y-97070000D01*
X176689050Y-100540000D02*
G75*
G03*
X176689050Y-100540000I-4579050J0D01*
G01*
%TO.C,C5*%
X202684748Y-78713000D02*
X203207252Y-78713000D01*
X202684748Y-77243000D02*
X203207252Y-77243000D01*
%TO.C,R1*%
X204189064Y-107977000D02*
X203734936Y-107977000D01*
X204189064Y-109447000D02*
X203734936Y-109447000D01*
%TO.C,C4*%
X205967000Y-69299252D02*
X205967000Y-68776748D01*
X204497000Y-69299252D02*
X204497000Y-68776748D01*
%TO.C,U1*%
X202610000Y-74660000D02*
X203900000Y-74660000D01*
X202610000Y-67890000D02*
X202610000Y-68340000D01*
X195390000Y-67890000D02*
X195390000Y-68340000D01*
X202160000Y-75110000D02*
X202610000Y-75110000D01*
X195840000Y-75110000D02*
X195390000Y-75110000D01*
X195390000Y-75110000D02*
X195390000Y-74660000D01*
X202610000Y-75110000D02*
X202610000Y-74660000D01*
X202160000Y-67890000D02*
X202610000Y-67890000D01*
X195840000Y-67890000D02*
X195390000Y-67890000D01*
%TO.C,R5*%
X189711064Y-70765000D02*
X189256936Y-70765000D01*
X189711064Y-72235000D02*
X189256936Y-72235000D01*
%TO.C,R12*%
X169444936Y-81815000D02*
X169899064Y-81815000D01*
X169444936Y-83285000D02*
X169899064Y-83285000D01*
%TO.C,Reset SW1*%
X199230000Y-103196000D02*
X199230000Y-103226000D01*
X192770000Y-109656000D02*
X192770000Y-109626000D01*
X199230000Y-109656000D02*
X199230000Y-109626000D01*
X192770000Y-103196000D02*
X199230000Y-103196000D01*
X199230000Y-105126000D02*
X199230000Y-107726000D01*
X192770000Y-103226000D02*
X192770000Y-103196000D01*
X192770000Y-109656000D02*
X199230000Y-109656000D01*
X192770000Y-105126000D02*
X192770000Y-107726000D01*
%TO.C,C7*%
X171965252Y-109447000D02*
X171442748Y-109447000D01*
X171965252Y-107977000D02*
X171442748Y-107977000D01*
%TO.C,C1*%
X196349252Y-111987000D02*
X195826748Y-111987000D01*
X196349252Y-110517000D02*
X195826748Y-110517000D01*
%TO.C,J3*%
X188916000Y-85598000D02*
X191576000Y-85598000D01*
X188916000Y-84328000D02*
X188916000Y-82998000D01*
X188916000Y-82998000D02*
X190246000Y-82998000D01*
X188916000Y-85598000D02*
X188916000Y-93278000D01*
X188916000Y-93278000D02*
X191576000Y-93278000D01*
X191576000Y-85598000D02*
X191576000Y-93278000D01*
%TO.C,C6*%
X186463000Y-89654748D02*
X186463000Y-90177252D01*
X187933000Y-89654748D02*
X187933000Y-90177252D01*
%TO.C,R2*%
X195352936Y-88858000D02*
X195807064Y-88858000D01*
X195352936Y-87388000D02*
X195807064Y-87388000D01*
%TD*%
%LPC*%
D14*
%TO.C,J2*%
X204000000Y-54610000D03*
X204000000Y-57150000D03*
X204000000Y-59690000D03*
D15*
X204000000Y-62230000D03*
%TD*%
D16*
%TO.C,U3*%
X193468000Y-54460000D03*
D17*
X193468000Y-57000000D03*
X193468000Y-59540000D03*
X198548000Y-59540000D03*
X198548000Y-57000000D03*
X198548000Y-54460000D03*
%TD*%
D18*
%TO.C,R4*%
X188825500Y-56896000D03*
X190650500Y-56896000D03*
%TD*%
D19*
%TO.C,C2*%
X194310000Y-75946000D03*
X192410000Y-75946000D03*
%TD*%
D20*
%TO.C,R9*%
X179578000Y-74779500D03*
X179578000Y-76604500D03*
%TD*%
D18*
%TO.C,R7*%
X164695500Y-82550000D03*
X166520500Y-82550000D03*
%TD*%
D21*
%TO.C,R10*%
X186586500Y-70358000D03*
X184761500Y-70358000D03*
%TD*%
D22*
%TO.C,C3*%
X205232000Y-74234000D03*
X205232000Y-76134000D03*
%TD*%
D18*
%TO.C,R13*%
X162409500Y-92964000D03*
X164234500Y-92964000D03*
%TD*%
D21*
%TO.C,R6*%
X186586500Y-72898000D03*
X184761500Y-72898000D03*
%TD*%
D18*
%TO.C,R3*%
X204447000Y-88123000D03*
X206272000Y-88123000D03*
%TD*%
D21*
%TO.C,R11*%
X190396500Y-69088000D03*
X188571500Y-69088000D03*
%TD*%
D20*
%TO.C,R8*%
X164338000Y-74779500D03*
X164338000Y-76604500D03*
%TD*%
D15*
%TO.C,J1*%
X199136000Y-85598000D03*
D14*
X201676000Y-85598000D03*
X199136000Y-88138000D03*
X201676000Y-88138000D03*
X199136000Y-90678000D03*
X201676000Y-90678000D03*
%TD*%
D23*
%TO.C,Generate Number SW2*%
X178260000Y-98000000D03*
X165760000Y-98000000D03*
X178260000Y-103000000D03*
X165760000Y-103000000D03*
%TD*%
D24*
%TO.C,C5*%
X203896000Y-77978000D03*
X201996000Y-77978000D03*
%TD*%
D21*
%TO.C,R1*%
X204874500Y-108712000D03*
X203049500Y-108712000D03*
%TD*%
D17*
%TO.C,U4*%
X177040000Y-64000000D03*
X174500000Y-64000000D03*
X171960000Y-64000000D03*
X169420000Y-64000000D03*
X166880000Y-64000000D03*
X166880000Y-79240000D03*
X169420000Y-79240000D03*
X171960000Y-79240000D03*
X174500000Y-79240000D03*
D16*
X177040000Y-79240000D03*
%TD*%
D25*
%TO.C,C4*%
X205232000Y-69988000D03*
X205232000Y-68088000D03*
%TD*%
D26*
%TO.C,U1*%
X201750000Y-75662500D03*
X201250000Y-75662500D03*
X200750000Y-75662500D03*
X200250000Y-75662500D03*
X199750000Y-75662500D03*
X199250000Y-75662500D03*
X198750000Y-75662500D03*
X198250000Y-75662500D03*
X197750000Y-75662500D03*
X197250000Y-75662500D03*
X196750000Y-75662500D03*
X196250000Y-75662500D03*
D27*
X194837500Y-74250000D03*
X194837500Y-73750000D03*
X194837500Y-73250000D03*
X194837500Y-72750000D03*
X194837500Y-72250000D03*
X194837500Y-71750000D03*
X194837500Y-71250000D03*
X194837500Y-70750000D03*
X194837500Y-70250000D03*
X194837500Y-69750000D03*
X194837500Y-69250000D03*
X194837500Y-68750000D03*
D26*
X196250000Y-67337500D03*
X196750000Y-67337500D03*
X197250000Y-67337500D03*
X197750000Y-67337500D03*
X198250000Y-67337500D03*
X198750000Y-67337500D03*
X199250000Y-67337500D03*
X199750000Y-67337500D03*
X200250000Y-67337500D03*
X200750000Y-67337500D03*
X201250000Y-67337500D03*
X201750000Y-67337500D03*
D27*
X203162500Y-68750000D03*
X203162500Y-69250000D03*
X203162500Y-69750000D03*
X203162500Y-70250000D03*
X203162500Y-70750000D03*
X203162500Y-71250000D03*
X203162500Y-71750000D03*
X203162500Y-72250000D03*
X203162500Y-72750000D03*
X203162500Y-73250000D03*
X203162500Y-73750000D03*
X203162500Y-74250000D03*
%TD*%
D21*
%TO.C,R5*%
X190396500Y-71500000D03*
X188571500Y-71500000D03*
%TD*%
D18*
%TO.C,R12*%
X168759500Y-82550000D03*
X170584500Y-82550000D03*
%TD*%
D28*
%TO.C,Reset SW1*%
X192025000Y-104176000D03*
X199975000Y-104176000D03*
X192025000Y-108676000D03*
X199975000Y-108676000D03*
%TD*%
D19*
%TO.C,C7*%
X172654000Y-108712000D03*
X170754000Y-108712000D03*
%TD*%
%TO.C,C1*%
X197038000Y-111252000D03*
X195138000Y-111252000D03*
%TD*%
D15*
%TO.C,J3*%
X190246000Y-84328000D03*
D14*
X190246000Y-86868000D03*
X190246000Y-89408000D03*
X190246000Y-91948000D03*
%TD*%
D22*
%TO.C,C6*%
X187198000Y-88966000D03*
X187198000Y-90866000D03*
%TD*%
D18*
%TO.C,R2*%
X194667500Y-88123000D03*
X196492500Y-88123000D03*
%TD*%
M02*
