%TF.GenerationSoftware,KiCad,Pcbnew,(6.0.11)*%
%TF.CreationDate,2024-12-29T21:24:03+02:00*%
%TF.ProjectId,LEDdice,4c454464-6963-4652-9e6b-696361645f70,rev?*%
%TF.SameCoordinates,Original*%
%TF.FileFunction,Legend,Bot*%
%TF.FilePolarity,Positive*%
%FSLAX46Y46*%
G04 Gerber Fmt 4.6, Leading zero omitted, Abs format (unit mm)*
G04 Created by KiCad (PCBNEW (6.0.11)) date 2024-12-29 21:24:03*
%MOMM*%
%LPD*%
G01*
G04 APERTURE LIST*
%ADD10C,0.200000*%
%ADD11C,0.150000*%
%ADD12C,0.120000*%
%ADD13O,1.700000X1.700000*%
%ADD14R,1.700000X1.700000*%
%ADD15R,1.524000X1.524000*%
%ADD16C,1.524000*%
%ADD17O,3.048000X1.850000*%
%ADD18R,5.000000X3.500000*%
G04 APERTURE END LIST*
D10*
X179634095Y-87229904D02*
X179634095Y-86429904D01*
X179367428Y-87001333D01*
X179100761Y-86429904D01*
X179100761Y-87229904D01*
X178376952Y-87229904D02*
X178376952Y-86810857D01*
X178415047Y-86734666D01*
X178491238Y-86696571D01*
X178643619Y-86696571D01*
X178719809Y-86734666D01*
X178376952Y-87191809D02*
X178453142Y-87229904D01*
X178643619Y-87229904D01*
X178719809Y-87191809D01*
X178757904Y-87115619D01*
X178757904Y-87039428D01*
X178719809Y-86963238D01*
X178643619Y-86925142D01*
X178453142Y-86925142D01*
X178376952Y-86887047D01*
X177996000Y-86696571D02*
X177996000Y-87229904D01*
X177996000Y-86772761D02*
X177957904Y-86734666D01*
X177881714Y-86696571D01*
X177767428Y-86696571D01*
X177691238Y-86734666D01*
X177653142Y-86810857D01*
X177653142Y-87229904D01*
X176929333Y-86696571D02*
X176929333Y-87229904D01*
X177272190Y-86696571D02*
X177272190Y-87115619D01*
X177234095Y-87191809D01*
X177157904Y-87229904D01*
X177043619Y-87229904D01*
X176967428Y-87191809D01*
X176929333Y-87153714D01*
X176662666Y-86696571D02*
X176357904Y-86696571D01*
X176548380Y-87229904D02*
X176548380Y-86544190D01*
X176510285Y-86468000D01*
X176434095Y-86429904D01*
X176357904Y-86429904D01*
X175748380Y-87229904D02*
X175748380Y-86810857D01*
X175786476Y-86734666D01*
X175862666Y-86696571D01*
X176015047Y-86696571D01*
X176091238Y-86734666D01*
X175748380Y-87191809D02*
X175824571Y-87229904D01*
X176015047Y-87229904D01*
X176091238Y-87191809D01*
X176129333Y-87115619D01*
X176129333Y-87039428D01*
X176091238Y-86963238D01*
X176015047Y-86925142D01*
X175824571Y-86925142D01*
X175748380Y-86887047D01*
X175024571Y-87191809D02*
X175100761Y-87229904D01*
X175253142Y-87229904D01*
X175329333Y-87191809D01*
X175367428Y-87153714D01*
X175405523Y-87077523D01*
X175405523Y-86848952D01*
X175367428Y-86772761D01*
X175329333Y-86734666D01*
X175253142Y-86696571D01*
X175100761Y-86696571D01*
X175024571Y-86734666D01*
X174796000Y-86696571D02*
X174491238Y-86696571D01*
X174681714Y-86429904D02*
X174681714Y-87115619D01*
X174643619Y-87191809D01*
X174567428Y-87229904D01*
X174491238Y-87229904D01*
X173881714Y-86696571D02*
X173881714Y-87229904D01*
X174224571Y-86696571D02*
X174224571Y-87115619D01*
X174186476Y-87191809D01*
X174110285Y-87229904D01*
X173996000Y-87229904D01*
X173919809Y-87191809D01*
X173881714Y-87153714D01*
X173500761Y-87229904D02*
X173500761Y-86696571D01*
X173500761Y-86848952D02*
X173462666Y-86772761D01*
X173424571Y-86734666D01*
X173348380Y-86696571D01*
X173272190Y-86696571D01*
X172700761Y-87191809D02*
X172776952Y-87229904D01*
X172929333Y-87229904D01*
X173005523Y-87191809D01*
X173043619Y-87115619D01*
X173043619Y-86810857D01*
X173005523Y-86734666D01*
X172929333Y-86696571D01*
X172776952Y-86696571D01*
X172700761Y-86734666D01*
X172662666Y-86810857D01*
X172662666Y-86887047D01*
X173043619Y-86963238D01*
X171710285Y-87229904D02*
X171710285Y-86696571D01*
X171710285Y-86429904D02*
X171748380Y-86468000D01*
X171710285Y-86506095D01*
X171672190Y-86468000D01*
X171710285Y-86429904D01*
X171710285Y-86506095D01*
X171329333Y-86696571D02*
X171329333Y-87229904D01*
X171329333Y-86772761D02*
X171291238Y-86734666D01*
X171215047Y-86696571D01*
X171100761Y-86696571D01*
X171024571Y-86734666D01*
X170986476Y-86810857D01*
X170986476Y-87229904D01*
X170719809Y-86696571D02*
X170415047Y-86696571D01*
X170605523Y-87229904D02*
X170605523Y-86544190D01*
X170567428Y-86468000D01*
X170491238Y-86429904D01*
X170415047Y-86429904D01*
X170034095Y-87229904D02*
X170110285Y-87191809D01*
X170148380Y-87153714D01*
X170186476Y-87077523D01*
X170186476Y-86848952D01*
X170148380Y-86772761D01*
X170110285Y-86734666D01*
X170034095Y-86696571D01*
X169919809Y-86696571D01*
X169843619Y-86734666D01*
X169805523Y-86772761D01*
X169767428Y-86848952D01*
X169767428Y-87077523D01*
X169805523Y-87153714D01*
X169843619Y-87191809D01*
X169919809Y-87229904D01*
X170034095Y-87229904D01*
X168815047Y-86696571D02*
X168815047Y-87496571D01*
X168815047Y-86734666D02*
X168738857Y-86696571D01*
X168586476Y-86696571D01*
X168510285Y-86734666D01*
X168472190Y-86772761D01*
X168434095Y-86848952D01*
X168434095Y-87077523D01*
X168472190Y-87153714D01*
X168510285Y-87191809D01*
X168586476Y-87229904D01*
X168738857Y-87229904D01*
X168815047Y-87191809D01*
X167976952Y-87229904D02*
X168053142Y-87191809D01*
X168091238Y-87115619D01*
X168091238Y-86429904D01*
X167329333Y-87229904D02*
X167329333Y-86810857D01*
X167367428Y-86734666D01*
X167443619Y-86696571D01*
X167596000Y-86696571D01*
X167672190Y-86734666D01*
X167329333Y-87191809D02*
X167405523Y-87229904D01*
X167596000Y-87229904D01*
X167672190Y-87191809D01*
X167710285Y-87115619D01*
X167710285Y-87039428D01*
X167672190Y-86963238D01*
X167596000Y-86925142D01*
X167405523Y-86925142D01*
X167329333Y-86887047D01*
X166605523Y-87191809D02*
X166681714Y-87229904D01*
X166834095Y-87229904D01*
X166910285Y-87191809D01*
X166948380Y-87153714D01*
X166986476Y-87077523D01*
X166986476Y-86848952D01*
X166948380Y-86772761D01*
X166910285Y-86734666D01*
X166834095Y-86696571D01*
X166681714Y-86696571D01*
X166605523Y-86734666D01*
X165957904Y-87191809D02*
X166034095Y-87229904D01*
X166186476Y-87229904D01*
X166262666Y-87191809D01*
X166300761Y-87115619D01*
X166300761Y-86810857D01*
X166262666Y-86734666D01*
X166186476Y-86696571D01*
X166034095Y-86696571D01*
X165957904Y-86734666D01*
X165919809Y-86810857D01*
X165919809Y-86887047D01*
X166300761Y-86963238D01*
X164967428Y-87229904D02*
X164967428Y-86429904D01*
X164624571Y-87229904D02*
X164624571Y-86810857D01*
X164662666Y-86734666D01*
X164738857Y-86696571D01*
X164853142Y-86696571D01*
X164929333Y-86734666D01*
X164967428Y-86772761D01*
X163938857Y-87191809D02*
X164015047Y-87229904D01*
X164167428Y-87229904D01*
X164243619Y-87191809D01*
X164281714Y-87115619D01*
X164281714Y-86810857D01*
X164243619Y-86734666D01*
X164167428Y-86696571D01*
X164015047Y-86696571D01*
X163938857Y-86734666D01*
X163900761Y-86810857D01*
X163900761Y-86887047D01*
X164281714Y-86963238D01*
X163557904Y-87229904D02*
X163557904Y-86696571D01*
X163557904Y-86848952D02*
X163519809Y-86772761D01*
X163481714Y-86734666D01*
X163405523Y-86696571D01*
X163329333Y-86696571D01*
X162757904Y-87191809D02*
X162834095Y-87229904D01*
X162986476Y-87229904D01*
X163062666Y-87191809D01*
X163100761Y-87115619D01*
X163100761Y-86810857D01*
X163062666Y-86734666D01*
X162986476Y-86696571D01*
X162834095Y-86696571D01*
X162757904Y-86734666D01*
X162719809Y-86810857D01*
X162719809Y-86887047D01*
X163100761Y-86963238D01*
D11*
X206501523Y-114244380D02*
X206977714Y-114244380D01*
X206977714Y-113244380D01*
X206168190Y-113720571D02*
X205834857Y-113720571D01*
X205692000Y-114244380D02*
X206168190Y-114244380D01*
X206168190Y-113244380D01*
X205692000Y-113244380D01*
X205263428Y-114244380D02*
X205263428Y-113244380D01*
X205025333Y-113244380D01*
X204882476Y-113292000D01*
X204787238Y-113387238D01*
X204739619Y-113482476D01*
X204692000Y-113672952D01*
X204692000Y-113815809D01*
X204739619Y-114006285D01*
X204787238Y-114101523D01*
X204882476Y-114196761D01*
X205025333Y-114244380D01*
X205263428Y-114244380D01*
X203072952Y-114244380D02*
X203072952Y-113244380D01*
X203072952Y-114196761D02*
X203168190Y-114244380D01*
X203358666Y-114244380D01*
X203453904Y-114196761D01*
X203501523Y-114149142D01*
X203549142Y-114053904D01*
X203549142Y-113768190D01*
X203501523Y-113672952D01*
X203453904Y-113625333D01*
X203358666Y-113577714D01*
X203168190Y-113577714D01*
X203072952Y-113625333D01*
X202596761Y-114244380D02*
X202596761Y-113577714D01*
X202596761Y-113244380D02*
X202644380Y-113292000D01*
X202596761Y-113339619D01*
X202549142Y-113292000D01*
X202596761Y-113244380D01*
X202596761Y-113339619D01*
X201692000Y-114196761D02*
X201787238Y-114244380D01*
X201977714Y-114244380D01*
X202072952Y-114196761D01*
X202120571Y-114149142D01*
X202168190Y-114053904D01*
X202168190Y-113768190D01*
X202120571Y-113672952D01*
X202072952Y-113625333D01*
X201977714Y-113577714D01*
X201787238Y-113577714D01*
X201692000Y-113625333D01*
X200882476Y-114196761D02*
X200977714Y-114244380D01*
X201168190Y-114244380D01*
X201263428Y-114196761D01*
X201311047Y-114101523D01*
X201311047Y-113720571D01*
X201263428Y-113625333D01*
X201168190Y-113577714D01*
X200977714Y-113577714D01*
X200882476Y-113625333D01*
X200834857Y-113720571D01*
X200834857Y-113815809D01*
X201311047Y-113911047D01*
X199739619Y-113577714D02*
X199501523Y-114244380D01*
X199263428Y-113577714D01*
X198358666Y-114244380D02*
X198930095Y-114244380D01*
X198644380Y-114244380D02*
X198644380Y-113244380D01*
X198739619Y-113387238D01*
X198834857Y-113482476D01*
X198930095Y-113530095D01*
X206968952Y-116022380D02*
X206968952Y-115022380D01*
X206730857Y-115022380D01*
X206588000Y-115070000D01*
X206492761Y-115165238D01*
X206445142Y-115260476D01*
X206397523Y-115450952D01*
X206397523Y-115593809D01*
X206445142Y-115784285D01*
X206492761Y-115879523D01*
X206588000Y-115974761D01*
X206730857Y-116022380D01*
X206968952Y-116022380D01*
X205826095Y-116022380D02*
X205921333Y-115974761D01*
X205968952Y-115927142D01*
X206016571Y-115831904D01*
X206016571Y-115546190D01*
X205968952Y-115450952D01*
X205921333Y-115403333D01*
X205826095Y-115355714D01*
X205683238Y-115355714D01*
X205588000Y-115403333D01*
X205540380Y-115450952D01*
X205492761Y-115546190D01*
X205492761Y-115831904D01*
X205540380Y-115927142D01*
X205588000Y-115974761D01*
X205683238Y-116022380D01*
X205826095Y-116022380D01*
X205064190Y-116022380D02*
X205064190Y-115355714D01*
X205064190Y-115450952D02*
X205016571Y-115403333D01*
X204921333Y-115355714D01*
X204778476Y-115355714D01*
X204683238Y-115403333D01*
X204635619Y-115498571D01*
X204635619Y-116022380D01*
X204635619Y-115498571D02*
X204588000Y-115403333D01*
X204492761Y-115355714D01*
X204349904Y-115355714D01*
X204254666Y-115403333D01*
X204207047Y-115498571D01*
X204207047Y-116022380D01*
X203730857Y-116022380D02*
X203730857Y-115355714D01*
X203730857Y-115022380D02*
X203778476Y-115070000D01*
X203730857Y-115117619D01*
X203683238Y-115070000D01*
X203730857Y-115022380D01*
X203730857Y-115117619D01*
X203254666Y-115355714D02*
X203254666Y-116022380D01*
X203254666Y-115450952D02*
X203207047Y-115403333D01*
X203111809Y-115355714D01*
X202968952Y-115355714D01*
X202873714Y-115403333D01*
X202826095Y-115498571D01*
X202826095Y-116022380D01*
X202445142Y-115355714D02*
X202207047Y-116022380D01*
X201968952Y-115355714D02*
X202207047Y-116022380D01*
X202302285Y-116260476D01*
X202349904Y-116308095D01*
X202445142Y-116355714D01*
X201588000Y-116022380D02*
X201588000Y-115022380D01*
X201492761Y-115641428D02*
X201207047Y-116022380D01*
X201207047Y-115355714D02*
X201588000Y-115736666D01*
X200349904Y-116022380D02*
X200349904Y-115498571D01*
X200397523Y-115403333D01*
X200492761Y-115355714D01*
X200683238Y-115355714D01*
X200778476Y-115403333D01*
X200349904Y-115974761D02*
X200445142Y-116022380D01*
X200683238Y-116022380D01*
X200778476Y-115974761D01*
X200826095Y-115879523D01*
X200826095Y-115784285D01*
X200778476Y-115689047D01*
X200683238Y-115641428D01*
X200445142Y-115641428D01*
X200349904Y-115593809D01*
X199921333Y-115974761D02*
X199826095Y-116022380D01*
X199635619Y-116022380D01*
X199540380Y-115974761D01*
X199492761Y-115879523D01*
X199492761Y-115831904D01*
X199540380Y-115736666D01*
X199635619Y-115689047D01*
X199778476Y-115689047D01*
X199873714Y-115641428D01*
X199921333Y-115546190D01*
X199921333Y-115498571D01*
X199873714Y-115403333D01*
X199778476Y-115355714D01*
X199635619Y-115355714D01*
X199540380Y-115403333D01*
X197826095Y-116022380D02*
X198302285Y-116022380D01*
X198302285Y-115022380D01*
X197492761Y-116022380D02*
X197492761Y-115355714D01*
X197492761Y-115022380D02*
X197540380Y-115070000D01*
X197492761Y-115117619D01*
X197445142Y-115070000D01*
X197492761Y-115022380D01*
X197492761Y-115117619D01*
X197159428Y-115355714D02*
X196778476Y-115355714D01*
X197016571Y-115022380D02*
X197016571Y-115879523D01*
X196968952Y-115974761D01*
X196873714Y-116022380D01*
X196778476Y-116022380D01*
X196540380Y-115355714D02*
X196302285Y-116022380D01*
X196064190Y-115355714D01*
X195254666Y-116022380D02*
X195254666Y-115498571D01*
X195302285Y-115403333D01*
X195397523Y-115355714D01*
X195588000Y-115355714D01*
X195683238Y-115403333D01*
X195254666Y-115974761D02*
X195349904Y-116022380D01*
X195588000Y-116022380D01*
X195683238Y-115974761D01*
X195730857Y-115879523D01*
X195730857Y-115784285D01*
X195683238Y-115689047D01*
X195588000Y-115641428D01*
X195349904Y-115641428D01*
X195254666Y-115593809D01*
X194778476Y-116022380D02*
X194778476Y-115355714D01*
X194778476Y-115022380D02*
X194826095Y-115070000D01*
X194778476Y-115117619D01*
X194730857Y-115070000D01*
X194778476Y-115022380D01*
X194778476Y-115117619D01*
X194445142Y-115355714D02*
X194064190Y-115355714D01*
X194302285Y-115022380D02*
X194302285Y-115879523D01*
X194254666Y-115974761D01*
X194159428Y-116022380D01*
X194064190Y-116022380D01*
X193730857Y-116022380D02*
X193730857Y-115355714D01*
X193730857Y-115022380D02*
X193778476Y-115070000D01*
X193730857Y-115117619D01*
X193683238Y-115070000D01*
X193730857Y-115022380D01*
X193730857Y-115117619D01*
X193302285Y-115974761D02*
X193207047Y-116022380D01*
X193016571Y-116022380D01*
X192921333Y-115974761D01*
X192873714Y-115879523D01*
X192873714Y-115831904D01*
X192921333Y-115736666D01*
X193016571Y-115689047D01*
X193159428Y-115689047D01*
X193254666Y-115641428D01*
X193302285Y-115546190D01*
X193302285Y-115498571D01*
X193254666Y-115403333D01*
X193159428Y-115355714D01*
X193016571Y-115355714D01*
X192921333Y-115403333D01*
X191730857Y-115117619D02*
X191683238Y-115070000D01*
X191588000Y-115022380D01*
X191349904Y-115022380D01*
X191254666Y-115070000D01*
X191207047Y-115117619D01*
X191159428Y-115212857D01*
X191159428Y-115308095D01*
X191207047Y-115450952D01*
X191778476Y-116022380D01*
X191159428Y-116022380D01*
X190540380Y-115022380D02*
X190445142Y-115022380D01*
X190349904Y-115070000D01*
X190302285Y-115117619D01*
X190254666Y-115212857D01*
X190207047Y-115403333D01*
X190207047Y-115641428D01*
X190254666Y-115831904D01*
X190302285Y-115927142D01*
X190349904Y-115974761D01*
X190445142Y-116022380D01*
X190540380Y-116022380D01*
X190635619Y-115974761D01*
X190683238Y-115927142D01*
X190730857Y-115831904D01*
X190778476Y-115641428D01*
X190778476Y-115403333D01*
X190730857Y-115212857D01*
X190683238Y-115117619D01*
X190635619Y-115070000D01*
X190540380Y-115022380D01*
X189826095Y-115117619D02*
X189778476Y-115070000D01*
X189683238Y-115022380D01*
X189445142Y-115022380D01*
X189349904Y-115070000D01*
X189302285Y-115117619D01*
X189254666Y-115212857D01*
X189254666Y-115308095D01*
X189302285Y-115450952D01*
X189873714Y-116022380D01*
X189254666Y-116022380D01*
X188397523Y-115355714D02*
X188397523Y-116022380D01*
X188635619Y-114974761D02*
X188873714Y-115689047D01*
X188254666Y-115689047D01*
X187873714Y-115641428D02*
X187111809Y-115641428D01*
X186111809Y-116022380D02*
X186683238Y-116022380D01*
X186397523Y-116022380D02*
X186397523Y-115022380D01*
X186492761Y-115165238D01*
X186588000Y-115260476D01*
X186683238Y-115308095D01*
X185730857Y-115117619D02*
X185683238Y-115070000D01*
X185588000Y-115022380D01*
X185349904Y-115022380D01*
X185254666Y-115070000D01*
X185207047Y-115117619D01*
X185159428Y-115212857D01*
X185159428Y-115308095D01*
X185207047Y-115450952D01*
X185778476Y-116022380D01*
X185159428Y-116022380D01*
%TO.C,U4*%
X178053904Y-81494380D02*
X178053904Y-82303904D01*
X178006285Y-82399142D01*
X177958666Y-82446761D01*
X177863428Y-82494380D01*
X177672952Y-82494380D01*
X177577714Y-82446761D01*
X177530095Y-82399142D01*
X177482476Y-82303904D01*
X177482476Y-81494380D01*
X176577714Y-81827714D02*
X176577714Y-82494380D01*
X176815809Y-81446761D02*
X177053904Y-82161047D01*
X176434857Y-82161047D01*
%TO.C,U2*%
X161564880Y-53988095D02*
X162374404Y-53988095D01*
X162469642Y-54035714D01*
X162517261Y-54083333D01*
X162564880Y-54178571D01*
X162564880Y-54369047D01*
X162517261Y-54464285D01*
X162469642Y-54511904D01*
X162374404Y-54559523D01*
X161564880Y-54559523D01*
X161660119Y-54988095D02*
X161612500Y-55035714D01*
X161564880Y-55130952D01*
X161564880Y-55369047D01*
X161612500Y-55464285D01*
X161660119Y-55511904D01*
X161755357Y-55559523D01*
X161850595Y-55559523D01*
X161993452Y-55511904D01*
X162564880Y-54940476D01*
X162564880Y-55559523D01*
X176789642Y-72338571D02*
X176789642Y-73481428D01*
X166259642Y-94743571D02*
X166259642Y-95886428D01*
X176789642Y-94738571D02*
X176789642Y-95881428D01*
X177361071Y-95310000D02*
X176218214Y-95310000D01*
X167089642Y-72338571D02*
X167089642Y-73481428D01*
X167661071Y-72910000D02*
X166518214Y-72910000D01*
D12*
%TO.C,U4*%
X178300000Y-62140000D02*
X178300000Y-81140000D01*
X178300000Y-81140000D02*
X166300000Y-81140000D01*
X166300000Y-62140000D02*
X165700000Y-62140000D01*
X165700000Y-62140000D02*
X165700000Y-81140000D01*
X178300000Y-62140000D02*
X166300000Y-62140000D01*
X166300000Y-81140000D02*
X165700000Y-81140000D01*
%TO.C,U2*%
X181682500Y-58950000D02*
X181682500Y-61490000D01*
X163612500Y-75455000D02*
X163612500Y-94045000D01*
X167422500Y-75455000D02*
X167422500Y-74185000D01*
X163172500Y-106740000D02*
X163172500Y-94040000D01*
X163172500Y-61480000D02*
X161902500Y-61480000D01*
X175412500Y-94040000D02*
X177952500Y-94040000D01*
X181682500Y-94050000D02*
X180412500Y-94050000D01*
X161902500Y-61480000D02*
X161902500Y-58940000D01*
X163172500Y-61480000D02*
X163172500Y-74180000D01*
X161902500Y-109280000D02*
X161902500Y-106740000D01*
X181682500Y-61490000D02*
X180412500Y-61490000D01*
X161902500Y-94040000D02*
X161902500Y-74180000D01*
X168692500Y-94045000D02*
X168692500Y-75455000D01*
X163612500Y-94045000D02*
X168692500Y-94045000D01*
X161902500Y-74180000D02*
X163172500Y-74180000D01*
X180412500Y-74190000D02*
X181682500Y-74190000D01*
X181682500Y-74190000D02*
X181682500Y-94050000D01*
X183012500Y-111550000D02*
X160957500Y-111550000D01*
X181682500Y-106750000D02*
X180412500Y-106750000D01*
X160962500Y-56850000D02*
X183012500Y-56850000D01*
X163172500Y-94040000D02*
X161902500Y-94040000D01*
X171012500Y-109280000D02*
X171012500Y-88960000D01*
X174142500Y-74180000D02*
X174142500Y-92770000D01*
X171012500Y-88960000D02*
X171712500Y-88960000D01*
X164882500Y-75455000D02*
X163612500Y-75455000D01*
X177952500Y-92770000D02*
X179222500Y-92770000D01*
X161902500Y-106740000D02*
X163172500Y-106740000D01*
X164882500Y-74185000D02*
X164882500Y-75455000D01*
X180412500Y-106750000D02*
X180412500Y-94050000D01*
X180412500Y-61490000D02*
X180412500Y-74190000D01*
X171012500Y-81800000D02*
X171712500Y-81800000D01*
X160957500Y-111550000D02*
X160957500Y-56850000D01*
X171712500Y-81800000D02*
X171712500Y-58940000D01*
X179222500Y-92770000D02*
X179222500Y-74180000D01*
X179222500Y-74180000D02*
X174142500Y-74180000D01*
X181682500Y-109290000D02*
X181682500Y-106750000D01*
X167422500Y-74185000D02*
X164882500Y-74185000D01*
X171712500Y-88960000D02*
X171712500Y-109280000D01*
X183012500Y-56850000D02*
X183012500Y-111550000D01*
X174142500Y-92770000D02*
X175412500Y-92770000D01*
X161902500Y-58940000D02*
X181682500Y-58950000D01*
X177952500Y-94040000D02*
X177952500Y-92770000D01*
X175412500Y-92770000D02*
X175412500Y-94040000D01*
X171012500Y-58940000D02*
X171012500Y-81800000D01*
X161902500Y-109280000D02*
X181682500Y-109290000D01*
X168692500Y-75455000D02*
X167422500Y-75455000D01*
%TD*%
%LPC*%
D13*
%TO.C,J2*%
X204000000Y-54610000D03*
X204000000Y-57150000D03*
X204000000Y-59690000D03*
D14*
X204000000Y-62230000D03*
%TD*%
D15*
%TO.C,U3*%
X193468000Y-54460000D03*
D16*
X193468000Y-57000000D03*
X193468000Y-59540000D03*
X198548000Y-59540000D03*
X198548000Y-57000000D03*
X198548000Y-54460000D03*
%TD*%
D14*
%TO.C,J1*%
X199136000Y-85598000D03*
D13*
X201676000Y-85598000D03*
X199136000Y-88138000D03*
X201676000Y-88138000D03*
X199136000Y-90678000D03*
X201676000Y-90678000D03*
%TD*%
D17*
%TO.C,Generate Number SW2*%
X178260000Y-98000000D03*
X165760000Y-98000000D03*
X178260000Y-103000000D03*
X165760000Y-103000000D03*
%TD*%
D16*
%TO.C,U4*%
X177040000Y-64000000D03*
X174500000Y-64000000D03*
X171960000Y-64000000D03*
X169420000Y-64000000D03*
X166880000Y-64000000D03*
X166880000Y-79240000D03*
X169420000Y-79240000D03*
X171960000Y-79240000D03*
X174500000Y-79240000D03*
D15*
X177040000Y-79240000D03*
%TD*%
D18*
%TO.C,U2*%
X177512500Y-54950000D03*
X177512500Y-113450000D03*
X166512500Y-113450000D03*
X166512500Y-54950000D03*
%TD*%
D14*
%TO.C,J3*%
X190246000Y-84328000D03*
D13*
X190246000Y-86868000D03*
X190246000Y-89408000D03*
X190246000Y-91948000D03*
%TD*%
M02*
