%TF.GenerationSoftware,KiCad,Pcbnew,(6.0.11)*%
%TF.CreationDate,2024-12-29T21:24:03+02:00*%
%TF.ProjectId,LEDdice,4c454464-6963-4652-9e6b-696361645f70,rev?*%
%TF.SameCoordinates,Original*%
%TF.FileFunction,Soldermask,Top*%
%TF.FilePolarity,Negative*%
%FSLAX46Y46*%
G04 Gerber Fmt 4.6, Leading zero omitted, Abs format (unit mm)*
G04 Created by KiCad (PCBNEW (6.0.11)) date 2024-12-29 21:24:03*
%MOMM*%
%LPD*%
G01*
G04 APERTURE LIST*
G04 Aperture macros list*
%AMRoundRect*
0 Rectangle with rounded corners*
0 $1 Rounding radius*
0 $2 $3 $4 $5 $6 $7 $8 $9 X,Y pos of 4 corners*
0 Add a 4 corners polygon primitive as box body*
4,1,4,$2,$3,$4,$5,$6,$7,$8,$9,$2,$3,0*
0 Add four circle primitives for the rounded corners*
1,1,$1+$1,$2,$3*
1,1,$1+$1,$4,$5*
1,1,$1+$1,$6,$7*
1,1,$1+$1,$8,$9*
0 Add four rect primitives between the rounded corners*
20,1,$1+$1,$2,$3,$4,$5,0*
20,1,$1+$1,$4,$5,$6,$7,0*
20,1,$1+$1,$6,$7,$8,$9,0*
20,1,$1+$1,$8,$9,$2,$3,0*%
G04 Aperture macros list end*
%ADD10O,1.700000X1.700000*%
%ADD11R,1.700000X1.700000*%
%ADD12R,1.524000X1.524000*%
%ADD13C,1.524000*%
%ADD14RoundRect,0.250000X-0.262500X-0.450000X0.262500X-0.450000X0.262500X0.450000X-0.262500X0.450000X0*%
%ADD15RoundRect,0.250000X0.250000X0.475000X-0.250000X0.475000X-0.250000X-0.475000X0.250000X-0.475000X0*%
%ADD16RoundRect,0.250000X-0.450000X0.262500X-0.450000X-0.262500X0.450000X-0.262500X0.450000X0.262500X0*%
%ADD17RoundRect,0.250000X0.262500X0.450000X-0.262500X0.450000X-0.262500X-0.450000X0.262500X-0.450000X0*%
%ADD18RoundRect,0.250000X-0.475000X0.250000X-0.475000X-0.250000X0.475000X-0.250000X0.475000X0.250000X0*%
%ADD19O,3.048000X1.850000*%
%ADD20RoundRect,0.250000X-0.250000X-0.475000X0.250000X-0.475000X0.250000X0.475000X-0.250000X0.475000X0*%
%ADD21RoundRect,0.250000X0.475000X-0.250000X0.475000X0.250000X-0.475000X0.250000X-0.475000X-0.250000X0*%
%ADD22RoundRect,0.075000X0.075000X0.662500X-0.075000X0.662500X-0.075000X-0.662500X0.075000X-0.662500X0*%
%ADD23RoundRect,0.075000X0.662500X0.075000X-0.662500X0.075000X-0.662500X-0.075000X0.662500X-0.075000X0*%
%ADD24R,1.550000X1.300000*%
G04 APERTURE END LIST*
D10*
%TO.C,J2*%
X204000000Y-54610000D03*
X204000000Y-57150000D03*
X204000000Y-59690000D03*
D11*
X204000000Y-62230000D03*
%TD*%
D12*
%TO.C,U3*%
X193468000Y-54460000D03*
D13*
X193468000Y-57000000D03*
X193468000Y-59540000D03*
X198548000Y-59540000D03*
X198548000Y-57000000D03*
X198548000Y-54460000D03*
%TD*%
D14*
%TO.C,R4*%
X188825500Y-56896000D03*
X190650500Y-56896000D03*
%TD*%
D15*
%TO.C,C2*%
X194310000Y-75946000D03*
X192410000Y-75946000D03*
%TD*%
D16*
%TO.C,R9*%
X179578000Y-74779500D03*
X179578000Y-76604500D03*
%TD*%
D14*
%TO.C,R7*%
X164695500Y-82550000D03*
X166520500Y-82550000D03*
%TD*%
D17*
%TO.C,R10*%
X186586500Y-70358000D03*
X184761500Y-70358000D03*
%TD*%
D18*
%TO.C,C3*%
X205232000Y-74234000D03*
X205232000Y-76134000D03*
%TD*%
D14*
%TO.C,R13*%
X162409500Y-92964000D03*
X164234500Y-92964000D03*
%TD*%
D17*
%TO.C,R6*%
X186586500Y-72898000D03*
X184761500Y-72898000D03*
%TD*%
D14*
%TO.C,R3*%
X204447000Y-88123000D03*
X206272000Y-88123000D03*
%TD*%
D17*
%TO.C,R11*%
X190396500Y-69088000D03*
X188571500Y-69088000D03*
%TD*%
D16*
%TO.C,R8*%
X164338000Y-74779500D03*
X164338000Y-76604500D03*
%TD*%
D11*
%TO.C,J1*%
X199136000Y-85598000D03*
D10*
X201676000Y-85598000D03*
X199136000Y-88138000D03*
X201676000Y-88138000D03*
X199136000Y-90678000D03*
X201676000Y-90678000D03*
%TD*%
D19*
%TO.C,Generate Number SW2*%
X178260000Y-98000000D03*
X165760000Y-98000000D03*
X178260000Y-103000000D03*
X165760000Y-103000000D03*
%TD*%
D20*
%TO.C,C5*%
X203896000Y-77978000D03*
X201996000Y-77978000D03*
%TD*%
D17*
%TO.C,R1*%
X204874500Y-108712000D03*
X203049500Y-108712000D03*
%TD*%
D13*
%TO.C,U4*%
X177040000Y-64000000D03*
X174500000Y-64000000D03*
X171960000Y-64000000D03*
X169420000Y-64000000D03*
X166880000Y-64000000D03*
X166880000Y-79240000D03*
X169420000Y-79240000D03*
X171960000Y-79240000D03*
X174500000Y-79240000D03*
D12*
X177040000Y-79240000D03*
%TD*%
D21*
%TO.C,C4*%
X205232000Y-69988000D03*
X205232000Y-68088000D03*
%TD*%
D22*
%TO.C,U1*%
X201750000Y-75662500D03*
X201250000Y-75662500D03*
X200750000Y-75662500D03*
X200250000Y-75662500D03*
X199750000Y-75662500D03*
X199250000Y-75662500D03*
X198750000Y-75662500D03*
X198250000Y-75662500D03*
X197750000Y-75662500D03*
X197250000Y-75662500D03*
X196750000Y-75662500D03*
X196250000Y-75662500D03*
D23*
X194837500Y-74250000D03*
X194837500Y-73750000D03*
X194837500Y-73250000D03*
X194837500Y-72750000D03*
X194837500Y-72250000D03*
X194837500Y-71750000D03*
X194837500Y-71250000D03*
X194837500Y-70750000D03*
X194837500Y-70250000D03*
X194837500Y-69750000D03*
X194837500Y-69250000D03*
X194837500Y-68750000D03*
D22*
X196250000Y-67337500D03*
X196750000Y-67337500D03*
X197250000Y-67337500D03*
X197750000Y-67337500D03*
X198250000Y-67337500D03*
X198750000Y-67337500D03*
X199250000Y-67337500D03*
X199750000Y-67337500D03*
X200250000Y-67337500D03*
X200750000Y-67337500D03*
X201250000Y-67337500D03*
X201750000Y-67337500D03*
D23*
X203162500Y-68750000D03*
X203162500Y-69250000D03*
X203162500Y-69750000D03*
X203162500Y-70250000D03*
X203162500Y-70750000D03*
X203162500Y-71250000D03*
X203162500Y-71750000D03*
X203162500Y-72250000D03*
X203162500Y-72750000D03*
X203162500Y-73250000D03*
X203162500Y-73750000D03*
X203162500Y-74250000D03*
%TD*%
D17*
%TO.C,R5*%
X190396500Y-71500000D03*
X188571500Y-71500000D03*
%TD*%
D14*
%TO.C,R12*%
X168759500Y-82550000D03*
X170584500Y-82550000D03*
%TD*%
D24*
%TO.C,Reset SW1*%
X192025000Y-104176000D03*
X199975000Y-104176000D03*
X192025000Y-108676000D03*
X199975000Y-108676000D03*
%TD*%
D15*
%TO.C,C7*%
X172654000Y-108712000D03*
X170754000Y-108712000D03*
%TD*%
%TO.C,C1*%
X197038000Y-111252000D03*
X195138000Y-111252000D03*
%TD*%
D11*
%TO.C,J3*%
X190246000Y-84328000D03*
D10*
X190246000Y-86868000D03*
X190246000Y-89408000D03*
X190246000Y-91948000D03*
%TD*%
D18*
%TO.C,C6*%
X187198000Y-88966000D03*
X187198000Y-90866000D03*
%TD*%
D14*
%TO.C,R2*%
X194667500Y-88123000D03*
X196492500Y-88123000D03*
%TD*%
M02*
